<?xml version="1.0" encoding="UTF-8" standalone="no"?>
<!DOCTYPE svg PUBLIC "-//W3C//DTD SVG 1.1//EN" "http://www.w3.org/Graphics/SVG/1.1/DTD/svg11.dtd">
<svg width="100%" height="100%" viewBox="0 0 13169 2488" version="1.1" xmlns="http://www.w3.org/2000/svg" xmlns:xlink="http://www.w3.org/1999/xlink" xml:space="preserve" xmlns:serif="http://www.serif.com/" style="fill-rule:evenodd;clip-rule:evenodd;stroke-linejoin:round;stroke-miterlimit:2;">
    <g transform="matrix(5.55556,0,0,5.55556,0,0)">
        <g>
            <g>
                <g>
                    <path d="M1269.8,203C1271.3,190 1280.5,181 1291.2,174.2L1293.1,173L1257.4,127.7L1256.6,127.6C1252.3,126.8 1248.1,126.1 1243.8,125.4C1230.8,123.6 1221.6,122.5 1213.5,121.7C1211.3,121.5 1209.1,121.3 1206.9,121.2L1206.7,121.2L1204.7,121.1L1203.7,121.1C1198.8,120.8 1193.9,120.5 1188.9,120.4C1188.3,120.4 1187.7,120.4 1187.1,120.3L1185.6,120.3C1167.6,119.9 1151.6,120.5 1140.3,121.2C1136.4,121.4 1111,124 1106.2,124.5C1105.9,124.5 1105.7,124.6 1105.4,124.6C1099.6,125.4 1087.8,127.2 1083.4,127.9L1048,173L1049.9,174.2C1060.6,181 1069.8,190 1071.3,203C1072.7,215.8 1065.8,230.7 1061,242.3C1054.5,257.9 1048.5,273.4 1048.5,290.5C1048.5,294.2 1049.1,297.8 1050.1,301.4C1053.6,312.8 1062.5,322 1071.7,329.3C1082.5,337.8 1095.1,344.8 1107.2,351.3C1119.9,358 1133,364.4 1145.2,371.8C1153.4,376.8 1164.2,384.1 1168.7,392.7L1170.5,396.2L1172.3,392.7C1176.8,384.1 1187.6,376.8 1195.8,371.8C1208,364.4 1221.1,358 1233.8,351.3C1246,344.8 1258.5,337.8 1269.4,329.3C1278.7,322 1287.5,312.8 1291,301.4C1292.1,297.9 1292.6,294.2 1292.6,290.5C1292.6,273.3 1286.6,257.9 1280.1,242.3C1275.3,230.7 1268.4,215.8 1269.8,203" style="fill:white;fill-rule:nonzero;"/>
                    <path d="M1214.2,76.1L1221.4,77.2L1221.4,72.9L1214.2,76.1Z" style="fill:rgb(239,220,184);"/>
                    <path d="M1149.9,70.3L1149.8,74.6L1154,74.3L1149.9,70.3Z" style="fill:rgb(239,220,184);"/>
                    <path d="M1187,74.2L1191.2,74.5L1191.1,70.3L1187,74.2Z" style="fill:rgb(239,220,184);"/>
                </g>
                <g>
                    <g>
                        <clipPath id="_clip1">
                            <path d="M1162.5,68.2C1162,68.2 1161.7,68.6 1161.7,69L1161.7,74.7C1157.3,74.8 1152.8,75 1148.2,75.2L1148.2,69.6C1148.2,69.4 1148.1,69.1 1147.9,69C1147.7,68.8 1147.5,68.8 1147.3,68.8C1142.3,69.1 1137.2,69.5 1132.1,70C1131.7,70 1131.3,70.4 1131.3,70.8L1131.3,76.5C1126.7,77 1122.8,77.5 1118.5,78.1L1118.5,72.4C1118.5,72.2 1118.4,71.9 1118.2,71.8C1118,71.7 1117.8,71.6 1117.5,71.6C1114.3,72.1 1110.8,72.8 1107.4,73.6C1105.4,74 1103.5,74.4 1101.7,74.8C1101.3,74.9 1101,75.2 1101,75.6L1101,81.8C1101,81.9 1101,82.1 1101.1,82.2C1101.9,83.8 1102.7,85.4 1103.6,87C1103.7,87.2 1104,87.4 1104.2,87.4L1104.6,87.4C1126.9,83.9 1147.6,82.1 1168.1,82.1C1189.6,82 1210.6,84.6 1235.6,88.5L1235.7,88.5C1235.9,88.5 1236.1,88.4 1236.2,88.3C1236.4,88.1 1236.5,87.9 1236.5,87.7L1236.5,86.9C1237.2,85.6 1237.9,84.4 1238.5,83.1L1239,82.2C1239.1,82.1 1239.1,81.9 1239.1,81.8L1239.1,75.6C1239.1,75.2 1238.8,74.9 1238.4,74.8L1235.9,74.3C1231.6,73.4 1227.2,72.6 1223,71.9C1222.8,71.9 1222.5,71.9 1222.3,72.1C1222.1,72.2 1222,72.5 1222,72.7L1221.9,76L1221.9,78C1218.4,77.5 1215.1,77.2 1211.6,76.8C1210.7,76.7 1209.8,76.6 1208.8,76.5L1208.8,70.8C1208.8,70.4 1208.5,70 1208,70C1203,69.5 1197.9,69.1 1192.8,68.8C1192.6,68.8 1192.3,68.9 1192.2,69C1192,69.1 1191.9,69.4 1191.9,69.6L1191.9,75.2C1187.5,75 1183,74.9 1178.4,74.8L1178.4,69C1178.4,68.5 1178,68.2 1177.6,68.2L1162.5,68.2"/>
                        </clipPath>
                        <g clip-path="url(#_clip1)">
                            <rect x="1101" y="68.2" width="138.2" height="20.2" style="fill:url(#_Linear2);"/>
                        </g>
                    </g>
                </g>
                <g>
                    <g>
                        <clipPath id="_clip3">
                            <path d="M1103.8,88.1L1109.7,93.9C1109.7,93.9 1140.3,88.7 1169.5,88.7C1198.7,88.7 1231.1,93.9 1231.1,93.9L1235.2,90L1236.4,88C1236.4,88 1209.4,82.2 1172.4,82.2C1135.3,82.4 1103.8,88.1 1103.8,88.1"/>
                        </clipPath>
                        <g clip-path="url(#_clip3)">
                            <rect x="1103.8" y="82.4" width="132.6" height="11.6" style="fill:url(#_Linear4);"/>
                        </g>
                    </g>
                </g>
                <g>
                    <g>
                        <clipPath id="_clip5">
                            <path d="M1114.8,93.7L1101.1,126.4C1101.1,126.4 1135.5,122.4 1172.5,121.6C1209.2,120.8 1239.9,126.4 1240.4,126.7C1240,125.9 1225.9,93.5 1225.9,93.5C1225.9,93.5 1201.5,90.4 1172.2,89.6C1170.1,89.5 1168,89.5 1166,89.5C1139,89.5 1114.8,93.7 1114.8,93.7"/>
                        </clipPath>
                        <g clip-path="url(#_clip5)">
                            <rect x="1101.1" y="89.5" width="139.3" height="37.2" style="fill:url(#_Linear6);"/>
                        </g>
                    </g>
                </g>
                <g>
                    <path d="M1179.9,121L1159.2,121.3C1159.2,121.3 1159.6,112.5 1160.5,109.6C1161.4,106.7 1163.3,103.5 1165.7,102.2C1168,100.8 1170.7,100.1 1173.2,101.1C1175.7,102 1177.4,103.3 1179,106.1C1180.6,108.9 1181.2,111.5 1181.7,114.6C1182.2,117.7 1181.7,121.3 1181.7,121.3L1179.9,121Z" style="fill:rgb(239,220,184);"/>
                    <path d="M1201.5,95.4C1198.2,95.6 1195.2,97.7 1195.4,100.4C1195.6,103.1 1197.2,115.6 1197.2,115.6L1210.5,116.6L1208.1,99.4C1208.1,99.3 1204.8,95.2 1201.5,95.4" style="fill:rgb(239,220,184);"/>
                </g>
                <g>
                    <g>
                        <clipPath id="_clip7">
                            <path d="M1089.7,138.5L1064.3,170.3C1074,178.3 1081.1,188.4 1082.6,201.5C1084.4,217.1 1077.5,232.8 1071.6,246.9C1065.8,260.9 1059.9,275.3 1059.9,290.7C1059.9,293.2 1060.3,295.6 1061,298C1066.8,316.7 1096.1,332.2 1112.5,340.9C1125.4,347.8 1138.8,354.2 1151.3,361.9C1157.6,365.8 1164.9,370.1 1170.6,375.6C1176.3,370.1 1182.8,365.8 1189.1,361.9C1201.6,354.3 1214.9,347.8 1227.9,340.9C1245.4,331.6 1280.5,313.6 1280.5,290.6C1280.5,275.2 1274.6,260.8 1268.8,246.8C1262.9,232.7 1256.2,217 1257.9,201.4C1259.4,188.3 1266.6,178.5 1276.3,170.5L1250.6,138.3C1224.8,133.7 1198.9,131.5 1172.9,131.5C1145,131.6 1117.3,134 1089.7,138.5"/>
                        </clipPath>
                        <g clip-path="url(#_clip7)">
                            <rect x="1059.9" y="131.6" width="220.5" height="244.1" style="fill:url(#_Radial8);"/>
                        </g>
                    </g>
                </g>
                <path d="M1094.3,181.2L1092.3,187.9L1085.5,187.9L1091,192.1L1088.9,198.8L1094.3,194.6L1099.8,198.8L1097.7,192.1L1103.2,187.9L1096.4,187.9L1094.3,181.2Z" style="fill:white;"/>
                <path d="M1094.3,181.2L1092.3,187.9L1085.5,187.9L1091,192.1L1088.9,198.8L1094.3,194.6L1099.8,198.8L1097.7,192.1L1103.2,187.9L1096.4,187.9L1094.3,181.2Z" style="fill:none;fill-rule:nonzero;"/>
                <path d="M1088.6,226.8L1086.5,233.5L1079.7,233.5L1085.3,237.6L1083.1,244.3L1088.6,240.2L1094.1,244.3L1092,237.6L1097.5,233.5L1090.7,233.5L1088.6,226.8Z" style="fill:white;"/>
                <path d="M1088.6,226.8L1086.5,233.5L1079.7,233.5L1085.3,237.6L1083.1,244.3L1088.6,240.2L1094.1,244.3L1092,237.6L1097.5,233.5L1090.7,233.5L1088.6,226.8Z" style="fill:none;fill-rule:nonzero;"/>
                <path d="M1081.2,267.6L1079.1,274.4L1072.3,274.3L1077.8,278.5L1075.7,285.2L1081.2,281L1086.7,285.2L1084.6,278.5L1090.1,274.3L1083.3,274.4L1081.2,267.6Z" style="fill:white;"/>
                <path d="M1081.2,267.6L1079.1,274.4L1072.3,274.3L1077.8,278.5L1075.7,285.2L1081.2,281L1086.7,285.2L1084.6,278.5L1090.1,274.3L1083.3,274.4L1081.2,267.6Z" style="fill:none;fill-rule:nonzero;"/>
                <path d="M1169.7,338.7L1167.6,345.4L1160.8,345.4L1166.3,349.5L1164.2,356.2L1169.7,352.1L1175.2,356.2L1173.1,349.5L1178.6,345.4L1171.8,345.4L1169.7,338.7Z" style="fill:white;"/>
                <path d="M1169.7,338.7L1167.6,345.4L1160.8,345.4L1166.3,349.5L1164.2,356.2L1169.7,352.1L1175.2,356.2L1173.1,349.5L1178.6,345.4L1171.8,345.4L1169.7,338.7Z" style="fill:none;fill-rule:nonzero;"/>
                <path d="M1210.7,322.1L1208.6,328.8L1201.8,328.8L1207.3,333L1205.2,339.7L1210.7,335.5L1216.2,339.7L1214,333L1219.6,328.8L1212.8,328.8L1210.7,322.1Z" style="fill:white;"/>
                <path d="M1210.7,322.1L1208.6,328.8L1201.8,328.8L1207.3,333L1205.2,339.7L1210.7,335.5L1216.2,339.7L1214,333L1219.6,328.8L1212.8,328.8L1210.7,322.1Z" style="fill:none;fill-rule:nonzero;"/>
                <path d="M1128.3,322.1L1130.4,328.8L1137.2,328.8L1131.7,333L1133.8,339.7L1128.3,335.5L1122.8,339.7L1124.9,333L1119.4,328.8L1126.2,328.8L1128.3,322.1Z" style="fill:white;"/>
                <path d="M1128.3,322.1L1130.4,328.8L1137.2,328.8L1131.7,333L1133.8,339.7L1128.3,335.5L1122.8,339.7L1124.9,333L1119.4,328.8L1126.2,328.8L1128.3,322.1Z" style="fill:none;fill-rule:nonzero;"/>
                <path d="M1095.7,300.4L1097.8,307.1L1104.6,307.1L1099.1,311.2L1101.2,317.9L1095.7,313.7L1090.2,317.9L1092.4,311.2L1086.8,307.1L1093.6,307.1L1095.7,300.4Z" style="fill:white;"/>
                <path d="M1095.7,300.4L1097.8,307.1L1104.6,307.1L1099.1,311.2L1101.2,317.9L1095.7,313.7L1090.2,317.9L1092.4,311.2L1086.8,307.1L1093.6,307.1L1095.7,300.4Z" style="fill:none;fill-rule:nonzero;"/>
                <g>
                    <g>
                        <clipPath id="_clip9">
                            <path d="M1103.5,243.3L1236.7,243.3C1237.8,200.8 1215.5,157.1 1170.1,157.1C1124.7,157.1 1102.4,200.7 1103.5,243.3"/>
                        </clipPath>
                        <g clip-path="url(#_clip9)">
                            <rect x="1102.4" y="157.1" width="135.4" height="86.2" style="fill:url(#_Radial10);"/>
                        </g>
                    </g>
                </g>
                <g>
                    <path d="M1103.5,238.9L1141,238.9L1141,240.5L1103.5,240.5L1103.5,238.9" style="fill:rgb(207,167,14);"/>
                    <path d="M1103.5,238.9L1141,238.9L1141,240.5L1103.5,240.5L1103.5,238.9Z" style="fill:none;fill-rule:nonzero;"/>
                    <path d="M1103.8,231.6L1141.1,238.9L1140.8,240.5L1103.7,233.2C1103.7,232.6 1103.8,232.1 1103.8,231.6" style="fill:rgb(207,167,14);"/>
                    <path d="M1103.8,231.6L1141.1,238.9L1140.8,240.5L1103.7,233.2C1103.7,232.6 1103.8,232.1 1103.8,231.6Z" style="fill:none;fill-rule:nonzero;"/>
                    <path d="M1104.6,224L1141.3,239L1140.7,240.5L1104.4,225.7C1104.5,225.1 1104.5,224.6 1104.6,224" style="fill:rgb(207,167,14);"/>
                    <path d="M1104.6,224L1141.3,239L1140.7,240.5L1104.4,225.7C1104.5,225.1 1104.5,224.6 1104.6,224Z" style="fill:none;fill-rule:nonzero;"/>
                    <path d="M1106.1,215.8L1141.5,239L1140.6,240.3L1105.8,217.4C1105.8,217 1106,216.4 1106.1,215.8" style="fill:rgb(207,167,14);"/>
                    <path d="M1106.1,215.8L1141.5,239L1140.6,240.3L1105.8,217.4C1105.8,217 1106,216.4 1106.1,215.8Z" style="fill:none;fill-rule:nonzero;"/>
                    <path d="M1108.5,206.8L1141.5,239.3L1140.4,240.4L1108,208.5C1108.2,207.9 1108.4,207.3 1108.5,206.8" style="fill:rgb(207,167,14);"/>
                    <path d="M1108.5,206.8L1141.5,239.3L1140.4,240.4L1108,208.5C1108.2,207.9 1108.4,207.3 1108.5,206.8Z" style="fill:none;fill-rule:nonzero;"/>
                    <path d="M1112.5,196.5L1141.7,239.4L1140.4,240.3L1111.8,198.3C1112,197.7 1112.2,197.1 1112.5,196.5" style="fill:rgb(207,167,14);"/>
                    <path d="M1112.5,196.5L1141.7,239.4L1140.4,240.3L1111.8,198.3C1112,197.7 1112.2,197.1 1112.5,196.5Z" style="fill:none;fill-rule:nonzero;"/>
                    <path d="M1118.7,185.2L1141.7,239.6L1140.2,240.2L1117.6,186.9C1118,186.3 1118.4,185.7 1118.7,185.2" style="fill:rgb(207,167,14);"/>
                    <path d="M1118.7,185.2L1141.7,239.6L1140.2,240.2L1117.6,186.9C1118,186.3 1118.4,185.7 1118.7,185.2Z" style="fill:none;fill-rule:nonzero;"/>
                    <path d="M1128.2,173.7L1141.8,239.8L1140.2,240.1L1126.9,175.1C1127.3,174.6 1127.7,174.1 1128.2,173.7" style="fill:rgb(207,167,14);"/>
                    <path d="M1128.2,173.7L1141.8,239.8L1140.2,240.1L1126.9,175.1C1127.3,174.6 1127.7,174.1 1128.2,173.7Z" style="fill:none;fill-rule:nonzero;"/>
                    <path d="M1141.5,164L1141.8,239.9L1140.2,239.9L1139.9,164.9C1140.4,164.5 1140.9,164.3 1141.5,164" style="fill:rgb(207,167,14);"/>
                    <path d="M1141.5,164L1141.8,239.9L1140.2,239.9L1139.9,164.9C1140.4,164.5 1140.9,164.3 1141.5,164Z" style="fill:none;fill-rule:nonzero;"/>
                    <path d="M1157.9,158.2L1141.7,240.1L1140.1,239.8L1156.1,158.6C1156.7,158.4 1157.3,158.3 1157.9,158.2" style="fill:rgb(207,167,14);"/>
                    <path d="M1157.9,158.2L1141.7,240.1L1140.1,239.8L1156.1,158.6C1156.7,158.4 1157.3,158.3 1157.9,158.2Z" style="fill:none;fill-rule:nonzero;"/>
                    <path d="M1176,157.3L1141.6,240.2L1140.1,239.6L1174.3,157.1C1174.9,157.2 1175.4,157.3 1176,157.3" style="fill:rgb(207,167,14);"/>
                    <path d="M1176,157.3L1141.6,240.2L1140.1,239.6L1174.3,157.1C1174.9,157.2 1175.4,157.3 1176,157.3Z" style="fill:none;fill-rule:nonzero;"/>
                    <path d="M1194.2,161.8L1141.6,240.4L1140.2,239.5L1192.7,161.1C1193.2,161.4 1193.7,161.6 1194.2,161.8" style="fill:rgb(207,167,14);"/>
                    <path d="M1194.2,161.8L1141.6,240.4L1140.2,239.5L1192.7,161.1C1193.2,161.4 1193.7,161.6 1194.2,161.8Z" style="fill:none;fill-rule:nonzero;"/>
                    <path d="M1210.1,171.9L1141.4,240.5L1140.3,239.4L1209,170.9C1209.3,171.2 1209.7,171.6 1210.1,171.9" style="fill:rgb(207,167,14);"/>
                    <path d="M1210.1,171.9L1141.4,240.5L1140.3,239.4L1209,170.9C1209.3,171.2 1209.7,171.6 1210.1,171.9Z" style="fill:none;fill-rule:nonzero;"/>
                    <path d="M1222.3,186.5L1141.2,240.7L1140.3,239.4L1221.4,185.2C1221.8,185.6 1222,186 1222.3,186.5" style="fill:rgb(207,167,14);"/>
                    <path d="M1222.3,186.5L1141.2,240.7L1140.3,239.4L1221.4,185.2C1221.8,185.6 1222,186 1222.3,186.5Z" style="fill:none;fill-rule:nonzero;"/>
                    <path d="M1230.5,203.4L1141,240.6L1140.4,239.1L1229.9,201.8C1230.2,202.4 1230.4,202.9 1230.5,203.4" style="fill:rgb(207,167,14);"/>
                    <path d="M1230.5,203.4L1141,240.6L1140.4,239.1L1229.9,201.8C1230.2,202.4 1230.4,202.9 1230.5,203.4Z" style="fill:none;fill-rule:nonzero;"/>
                    <path d="M1235.2,221.5L1140.9,240.7L1140.6,239.1L1235,219.9C1235,220.5 1235.1,221 1235.2,221.5" style="fill:rgb(207,167,14);"/>
                    <path d="M1235.2,221.5L1140.9,240.7L1140.6,239.1L1235,219.9C1235,220.5 1235.1,221 1235.2,221.5Z" style="fill:none;fill-rule:nonzero;"/>
                    <path d="M1236.8,240L1140.8,240.7L1140.8,239.1L1236.8,238.4C1236.7,238.9 1236.8,239.4 1236.8,240" style="fill:rgb(207,167,14);"/>
                    <path d="M1236.8,240L1140.8,240.7L1140.8,239.1L1236.8,238.4C1236.7,238.9 1236.8,239.4 1236.8,240Z" style="fill:none;fill-rule:nonzero;"/>
                    <path d="M1141,215.7C1154.6,215.7 1165.6,226.5 1165.6,239.9L1116.4,239.9C1116.3,226.6 1127.4,215.7 1141,215.7" style="fill:rgb(207,167,14);"/>
                    <path d="M1141,217.8C1153.5,217.8 1163.6,227.5 1163.6,239.4L1118.4,239.4C1118.4,227.5 1128.5,217.8 1141,217.8" style="fill:rgb(251,204,0);"/>
                </g>
                <g>
                    <g>
                        <clipPath id="_clip11">
                            <path d="M1103.5,240.5C1103.5,243.7 1103.7,246.8 1103.9,250C1119.3,250.5 1139.2,249.6 1139.7,252.5C1139.8,252.9 1140.6,252.7 1141.3,252.5C1142,252.3 1142.7,252.1 1142.3,252.5C1135.2,260.3 1144,273.8 1152.9,280.8C1180.7,302.3 1170.5,314.4 1148,319.3C1154.6,321.8 1162,323.2 1170.1,323.2C1195.7,323.2 1213.9,309.5 1224.8,289.9C1208.2,283.3 1180,279.9 1173.5,265.1C1171.3,260.2 1184.6,251 1186.7,247.1C1190.7,239.4 1164.7,241 1165.4,240.5L1104,240.2C1104.1,240.1 1103.9,240.2 1103.5,240.5"/>
                        </clipPath>
                        <g clip-path="url(#_clip11)">
                            <rect x="1103.5" y="239.3" width="121.3" height="83.8" style="fill:url(#_Linear12);"/>
                        </g>
                    </g>
                </g>
                <g>
                    <g>
                        <clipPath id="_clip13">
                            <path d="M1103.5,240.1L1103.5,239.7C1100,257.9 1108,286.3 1124.5,304C1136.8,317.2 1153.9,323.6 1162.8,323.7L1163.6,323.7C1164.2,323.7 1164.7,323.6 1165.2,323.6C1165.8,323.5 1166.3,323.6 1166.8,323.6C1167.6,323.7 1168.3,323.7 1168.6,323.2C1185.7,291 1123.4,255 1167.6,240.6C1170.6,239.6 1165.1,239.3 1156,239.3C1140.7,239.2 1115.3,240.1 1103.5,240.1"/>
                        </clipPath>
                        <g clip-path="url(#_clip13)">
                            <rect x="1100" y="239.2" width="85.7" height="84.4" style="fill:url(#_Linear14);"/>
                        </g>
                    </g>
                </g>
                <g>
                    <g>
                        <clipPath id="_clip15">
                            <path d="M1228.7,201.6C1213,201.8 1214.4,220.2 1203.5,221.3C1200.9,221.6 1194.5,219.4 1190.1,218.7C1184.1,217.7 1172.3,232 1169.5,239.8L1236.8,239.8C1236.7,226.6 1234.4,213.5 1229.9,201.7C1229.5,201.6 1229.1,201.6 1228.7,201.6Z"/>
                        </clipPath>
                        <g clip-path="url(#_clip15)">
                            <rect x="1169.5" y="201.6" width="67.3" height="38.2" style="fill:url(#_Linear16);"/>
                        </g>
                    </g>
                </g>
                <g>
                    <path d="M1131,287.6C1122.1,269.6 1126.7,258.4 1139,251.6C1133.4,261.5 1141.6,269.9 1153.4,279.1C1145,280.8 1137.2,283.3 1131.3,287.4L1131,287.6Z" style="fill:white;"/>
                </g>
                <g>
                    <g>
                        <clipPath id="_clip17">
                            <path d="M1174.1,277.1C1185,288.5 1205.1,290 1219.8,297.7C1231,282.3 1236.7,261.6 1236.8,240.9L1169.8,240.1C1163.6,249.6 1160.3,262.7 1174.1,277.1"/>
                        </clipPath>
                        <g clip-path="url(#_clip17)">
                            <rect x="1160.3" y="240.1" width="76.4" height="57.6" style="fill:url(#_Linear18);"/>
                        </g>
                    </g>
                </g>
                <g>
                    <g>
                        <clipPath id="_clip19">
                            <path d="M1221.9,221.9C1216.2,222.6 1212.4,231.8 1201.3,238.7L1236.8,238.7C1236.7,233.8 1236.4,228.9 1235.7,224.1C1232.3,223.7 1227,222.4 1223.3,221.9L1221.9,221.9Z"/>
                        </clipPath>
                        <g clip-path="url(#_clip19)">
                            <rect x="1201.2" y="221.9" width="35.5" height="16.8" style="fill:url(#_Linear20);"/>
                        </g>
                    </g>
                </g>
                <rect x="1136.2" y="195.2" width="8.9" height="4.7" style="fill:rgb(251,204,0);"/>
                <rect x="1136.2" y="195.2" width="8.9" height="4.7" style="fill:none;"/>
                <g>
                    <path d="M1173,185C1178.8,184.9 1184.6,185.1 1190,187C1194.2,188.5 1195.8,188.5 1199.8,192.1L1193.9,195.8C1188,189.2 1180.5,188.1 1172.9,185.9C1169.6,185 1169.8,185.1 1173,185" style="fill:white;"/>
                    <path d="M1197.2,192.2C1202,192.5 1207.5,188.9 1209.7,188.5C1210.5,188.4 1211.9,189.7 1211.2,190.4C1210.8,190.8 1208.2,191.8 1207.4,192.2C1206.9,192.4 1211.1,190.3 1211.6,190.4C1212.8,190.6 1213.5,192.5 1213,192.9C1213,192.9 1209.3,193.9 1208.2,194.4C1207.2,194.9 1211.3,193 1213,192.9C1213.6,192.9 1214.3,194.8 1213.4,195.4C1210.8,197.1 1207.3,197.1 1204.6,198.3C1205.7,202.4 1208.4,207.1 1208.2,211.4C1208,218.1 1204.3,224.3 1203.2,230.5C1202.8,232.9 1203.1,233.6 1202.6,230.7C1201.1,222.6 1200.6,208.1 1196.8,202.8C1195.2,201.8 1194.1,201 1192.2,200.3C1191.2,199.9 1189.7,199.9 1187.7,199.7C1186.7,200 1184.1,200.5 1183.1,200.8C1183.4,198.9 1185,193.4 1188.6,193.9L1197.2,192.2Z" style="fill:white;"/>
                    <path d="M1199,263.2L1198.9,265.3L1201.8,267.4L1201.7,265L1199.1,263.1L1199,263.2ZM1197.7,301.2L1197.6,303.3L1197.8,303.5L1200.7,303.5L1197.7,301.2ZM1197.8,296.9L1197.7,299.1L1202.7,302.8L1202.6,300.6L1197.8,296.9ZM1198,292.7L1197.9,294.9L1202.7,298.4L1202.6,296.1L1198,292.7ZM1198.1,288.4L1198,290.6L1202.5,294L1202.5,291.6L1198.1,288.4ZM1198.3,284.2L1198.2,286.4L1202.5,289.5L1202.4,287.2L1198.3,284.2ZM1198.4,279.9L1198.3,282.1L1202.3,285L1202.2,282.6L1198.4,279.9ZM1198.5,275.7L1198.4,278L1202.1,280.7L1202,278.3L1198.5,275.7ZM1198.7,271.5L1198.6,273.8L1202,276.3L1201.9,273.9L1198.7,271.5ZM1198.8,267.2L1198.7,269.5L1201.9,271.8L1201.8,269.3L1198.8,267.2Z" style="fill:rgb(181,152,119);"/>
                    <path d="M1197.4,301.4L1197.3,303.5L1197.5,303.7L1200.4,303.7L1197.4,301.4ZM1197.6,297.2L1197.5,299.3L1202.5,303L1202.4,300.8L1197.6,297.2ZM1197.7,292.9L1197.6,295L1202.4,298.5L1202.3,296.3L1197.7,292.9Z" style="fill:none;fill-rule:nonzero;"/>
                </g>
                <g>
                    <g>
                        <clipPath id="_clip21">
                            <path d="M1131.1,209.2L1131.1,238.9L1150.8,238.9L1150.8,209.2L1131.1,209.2Z"/>
                        </clipPath>
                        <g clip-path="url(#_clip21)">
                            <rect x="1131.1" y="209.2" width="19.7" height="29.6" style="fill:url(#_Linear22);"/>
                        </g>
                    </g>
                </g>
                <g>
                    <g>
                        <clipPath id="_clip23">
                            <path d="M1140.9,187.1C1139.7,187.1 1139.1,188.6 1138.1,189.8C1137.1,191 1136.2,191.8 1136.2,191.8L1136.1,203.9L1136.5,204.5L1136.2,208.8L1144.6,208.9L1144.3,204.5L1146.1,204.1L1145.9,199.9L1145.7,193C1145.7,193 1143.6,191 1142.8,189.7C1142.1,188.5 1142.6,187.1 1140.9,187.1Z"/>
                        </clipPath>
                        <g clip-path="url(#_clip23)">
                            <rect x="1136.2" y="187.1" width="10.1" height="21.7" style="fill:url(#_Linear24);"/>
                        </g>
                    </g>
                </g>
                <rect x="1136.7" y="195.4" width="8" height="3.7" style="fill:rgb(251,204,0);"/>
                <g>
                    <path d="M1138.4,95.3C1141.7,95.5 1144.7,97.6 1144.5,100.3C1144.3,103 1142.7,115.5 1142.7,115.5L1129.4,116.5L1131.8,99.3C1131.8,99.2 1135.1,95.1 1138.4,95.3" style="fill:rgb(239,220,184);"/>
                    <path d="M1135,100.8C1134.6,105.4 1134,108.5 1133.6,113.1C1135.9,112.9 1137.6,112.9 1139.4,112.7C1140,108.2 1140.4,104.9 1141,100.4C1139.9,97.7 1136.8,98.1 1135,100.8" style="fill:rgb(119,82,47);fill-rule:nonzero;"/>
                    <path d="M1206.3,113.1C1205.9,108.5 1205.3,105.4 1204.9,100.8C1203.1,98.1 1200.1,97.7 1198.9,100.4C1199.5,104.9 1199.9,108.2 1200.5,112.7C1202.3,112.9 1203.9,112.9 1206.3,113.1" style="fill:rgb(119,82,47);fill-rule:nonzero;"/>
                    <path d="M1178.8,120.6L1178.7,118.9C1178.2,113 1177.8,103.7 1170.4,103.7C1163.2,103.7 1162.8,113.4 1162.4,119.1L1162.3,120.5L1178.8,120.6Z" style="fill:rgb(119,82,47);fill-rule:nonzero;"/>
                    <path d="M1170.5,101.4C1180,101.4 1180.3,112.8 1181,119.9L1181.1,120.3L1181,120.5L1182.8,120.5L1182.7,120C1182.5,118.1 1182.4,116 1182.1,113.9L1186.5,114L1187.1,120.1L1187.2,120.5L1188.9,120.5L1188.9,120.1L1188.3,114C1190.9,114.1 1193.6,114.2 1196.2,114.3L1196.5,116.7L1200,117C1202,117.2 1203.9,117.2 1205.9,117.4L1211.1,117.8L1210.9,115.1C1214.3,115.3 1217.7,115.6 1221.1,116L1222.7,122.4L1222.9,123.4L1224.6,123.5L1224.3,121.9L1222.9,116.3L1235.2,117.8L1237.9,123.9L1238.1,124.5L1238.3,125C1238.3,125 1239.5,125.2 1240.4,125.3L1240.4,124.9L1240.3,124.9L1227,94.1L1231.8,94.8L1236.8,90.6L1240.4,83C1241,81.8 1240.6,76 1240.6,74.1C1237.8,73.6 1222.5,70.5 1221.3,70.6L1210.4,75.5L1210.4,69.2L1191.1,67.7L1191.1,67.8L1184.5,74L1180.2,73.9L1180.2,67.4L1160.9,67.4L1160.9,74L1156.7,74.1L1150,67.8L1130.7,69.4L1130.7,75.6L1119.8,70.8C1118.5,70.6 1103.3,73.7 1100.5,74.2C1100.5,76 1100.1,81.8 1100.7,83C1105.2,92.2 1101.9,88.8 1109.9,94.7L1113.6,94.1L1100.4,125C1100.3,125.2 1100.4,125.2 1100.3,125.2L1100.3,125.6L1102.3,125.3L1102.5,124.9L1102.4,124.9L1105.5,117.9L1105.6,117.9L1117.9,116.5L1116.2,123.1L1116.1,123.3L1116,124.6L1117.6,124.6L1118.4,121.5L1119.7,116.3C1122.8,116 1125.8,115.7 1128.9,115.5L1128.7,117.9L1133.9,117.5C1135.9,117.3 1137.8,117.3 1139.8,117.1L1143.3,116.8L1143.6,114.5C1146.6,114.4 1149.6,114.2 1152.5,114.1L1152,118.9L1151.8,121.2L1153.5,121.2L1153.6,120.4L1153.6,120.2L1154.2,114L1158.7,113.9L1159,112.2L1143.7,112.8C1144,110.7 1144.2,108.7 1144.5,106.6L1160.9,105.9C1159,109.9 1158.6,115.1 1158.1,119.2L1157.9,120.8L1159.7,120.8L1159.8,119.9C1160.7,113 1161.2,101.4 1170.5,101.4M1196.1,96.6C1187.9,96.1 1179.7,95.9 1171.5,95.9L1171.5,89.9C1180.9,89.9 1190.3,90.3 1199.7,91.1L1200.3,94.4L1199.6,94.5C1198.2,94.8 1197,95.6 1196.1,96.6M1194.5,100.9C1194.7,102.1 1194.8,103.4 1195,104.6C1192.5,104.5 1190,104.4 1187.5,104.3L1187,97.8C1189.7,97.9 1192.4,98 1195.1,98.2L1194.9,98.6L1194.4,99.7L1194.5,100.9ZM1206.1,115.3C1204.1,115.1 1202.2,115.1 1200.2,114.9L1198.4,114.7L1198.2,113C1197.7,108.9 1197.1,104.8 1196.6,100.7L1196.5,100.1L1196.7,99.6C1197.3,98.2 1198.4,97.1 1200,96.6C1202.6,95.9 1205.2,97.6 1206.6,99.7L1206.9,100.2L1207,100.7C1207.4,104.8 1208.1,108.9 1208.4,113L1208.6,115.6L1206.1,115.3ZM1209.3,100.4L1209.2,99.3L1209.1,99.2C1211.7,99.4 1214.4,99.7 1217,100L1218.6,106.3C1215.7,106 1212.8,105.7 1209.8,105.5C1209.6,103.9 1209.4,102.2 1209.3,100.4M1234.5,115.9L1234.2,115.9C1226.4,114.9 1218.6,114.1 1210.8,113.5L1210.7,112.8C1210.5,111 1210.3,109.2 1210.1,107.4C1217.4,108 1224.6,108.8 1231.8,109.8L1234.5,115.9ZM1231,107.9L1230.7,107.8L1220.5,106.5L1218.9,100.2L1228.2,101.4L1231,107.9ZM1227.3,99.6L1227,99.5L1207.9,97.5C1206.4,95.7 1204.3,94.4 1202,94.2L1201.5,91.1C1209.3,91.8 1217,92.7 1224.8,93.8L1227.3,99.6ZM1221.4,73L1221.3,77.1C1219,76.8 1216.7,76.5 1214.4,76.1L1221.4,73ZM1191.1,70.5L1191.1,74.4C1189.8,74.3 1188.5,74.3 1187.2,74.3L1191.1,70.5ZM1149.9,70.5L1153.9,74.3C1152.6,74.4 1151.2,74.4 1149.9,74.5L1149.9,70.5ZM1119.7,73.2L1126.8,76.3C1124.4,76.6 1122,76.9 1119.7,77.2L1119.7,73.2ZM1105,86.9C1101.9,80.9 1102.5,83.1 1102.5,75.9C1107.5,74.9 1112.6,74 1117.6,73.2L1117.6,79.5C1122.6,78.8 1127.7,78.2 1132.7,77.6L1132.7,71.2C1137.7,70.7 1142.8,70.3 1147.8,70L1147.8,76.5C1152.8,76.3 1157.9,76.1 1162.9,76L1162.9,69.5C1167.9,69.4 1172.9,69.4 1178,69.5L1178,76C1183,76.1 1188.1,76.2 1193.1,76.5L1193.1,70C1198.1,70.3 1203.2,70.7 1208.2,71.2L1208.2,77.6C1213.2,78.1 1218.3,78.8 1223.3,79.5L1223.3,73.2C1228.3,74 1233.4,74.9 1238.4,75.9C1238.4,83.2 1239.1,80.7 1235.8,87C1213.4,83.5 1191,81.5 1168.4,81.5C1147.2,81.6 1126.1,83.5 1105,86.9ZM1110.4,92.6C1108.5,91.2 1107.3,90.3 1105.4,88.9C1150.7,81.7 1189.8,81.9 1235.5,89L1231.2,92.7L1209.1,89.8C1176.3,86.4 1144.9,87.2 1110.4,92.6M1115.8,93.9C1123.7,92.8 1131.6,91.9 1139.5,91.2L1139,94.3C1136.2,94.1 1133.6,95.7 1131.9,97.8L1113.4,99.7L1115.8,93.9ZM1112.5,101.5L1122.1,100.3L1120.5,106.8L1109.8,108.1L1112.5,101.5ZM1129.2,112.7L1129.1,113.7C1121.5,114.3 1113.9,115.1 1106.3,116.1L1108.9,110L1109,110C1115.9,109.1 1122.8,108.3 1129.8,107.7C1129.6,109.3 1129.4,111 1129.2,112.7M1130.6,100.4C1130.4,102.2 1130.2,104 1130,105.8C1127.4,106 1124.8,106.3 1122.3,106.5L1124,100C1126.3,99.8 1128.5,99.5 1130.8,99.3L1130.6,100.4ZM1143.2,100.6C1142.7,104.7 1142.1,108.8 1141.6,112.9L1141.4,114.6L1139.6,114.8C1137.7,115 1135.7,115 1133.7,115.2L1131.1,115.4L1131.3,112.8C1131.7,108.7 1132.4,104.6 1132.7,100.5L1132.7,100L1133,99.5C1134.4,97.4 1136.9,95.7 1139.6,96.4C1141.1,96.8 1142.3,97.9 1142.9,99.4L1143.1,99.9L1143.2,100.6ZM1143.9,96.7C1143.1,95.7 1142,95 1140.7,94.6L1141.3,91.1C1150.8,90.3 1160.2,89.9 1169.8,89.9L1169.8,95.9C1161.1,95.9 1152.5,96.2 1143.9,96.7M1153.4,104.4C1150.6,104.5 1147.7,104.6 1144.9,104.8C1145.1,103.5 1145.2,102.2 1145.4,100.9L1145.5,99.7L1145,98.6L1144.9,98.3C1147.9,98.1 1150.9,98 1153.9,97.9L1153.4,104.4ZM1155.2,104.3L1155.7,97.8C1165.5,97.5 1175.3,97.4 1185.1,97.8L1185.6,104.3L1179,104.2C1179.4,104.7 1179.7,105.3 1180,105.9L1195.1,106.5C1195.4,108.6 1195.6,110.6 1195.9,112.7L1181.8,112.2L1181.9,112.9C1180.8,106.2 1178.3,99.7 1170.4,99.7C1166.3,99.7 1163.6,101.5 1161.9,104.2L1155.2,104.3Z" style="fill:rgb(119,82,47);fill-rule:nonzero;"/>
                    <rect x="1138.8" y="219.8" width="4.7" height="4.5" style="fill:rgb(73,89,96);"/>
                    <path d="M1149.9,290.2C1150.8,289.4 1150.8,288.5 1149.9,287.7L1146.1,287.7L1146.1,285.4C1146.1,284.9 1145.7,284.5 1145.2,284.5L1143.1,284.5C1142.6,284.5 1142.2,284.9 1142.2,285.4L1142.2,287.7L1133.5,287.7C1139.3,284.1 1146.4,282.1 1153,280.7L1156.7,280L1153.8,277.7C1148.6,273.6 1139.2,266.4 1138.5,259.4C1138.3,257.1 1138.9,254.9 1140,252.9L1143.1,247.5L1137.7,250.5C1122.3,259.1 1122.2,273.2 1129.2,287.7L1127,287.7L1127,286.4L1124,286.4L1124,287.7L1120.7,287.7C1119.8,288.4 1119.8,289.2 1120.7,290.2C1130.1,291.7 1139.9,291.7 1149.9,290.2M1138.6,252C1133,261.9 1141,269.8 1152.8,279C1144.5,280.7 1136.9,283.2 1131.1,287.3C1122.7,270.4 1126.3,258.8 1138.6,252" style="fill:rgb(73,89,96);fill-rule:nonzero;"/>
                    <path d="M1188.8,195.7C1188.4,195.7 1188,196 1187.9,196.5C1187.9,197 1188.2,197.4 1188.6,197.4C1189,197.4 1189.4,197.1 1189.5,196.6C1189.6,196.2 1189.2,195.8 1188.8,195.7" style="fill:rgb(73,89,96);fill-rule:nonzero;"/>
                    <path d="M1269.8,203C1271.3,190 1280.5,181 1291.2,174.2L1293.1,173L1257.4,127.7L1256.6,127.6C1252.3,126.8 1248.1,126.1 1243.8,125.4C1230.8,123.6 1221.6,122.5 1213.5,121.7C1211.3,121.5 1209.1,121.3 1206.9,121.2L1206.7,121.2L1204.7,121.1L1203.7,121.1C1198.8,120.8 1193.9,120.5 1188.9,120.4C1188.3,120.4 1187.7,120.4 1187.1,120.3L1185.6,120.3C1167.6,119.9 1151.6,120.5 1140.3,121.2C1136.4,121.4 1111,124 1106.2,124.5C1105.9,124.5 1105.7,124.6 1105.4,124.6C1099.6,125.4 1087.8,127.2 1083.5,127.9L1048,173L1049.9,174.2C1060.6,181 1069.8,190 1071.3,203C1072.7,215.8 1065.8,230.7 1061,242.3C1054.5,257.9 1048.5,273.4 1048.5,290.5C1048.5,294.2 1049,297.8 1050.1,301.4C1053.6,312.8 1062.5,322 1071.7,329.3C1082.5,337.8 1095.1,344.8 1107.3,351.3C1120,358 1133.1,364.4 1145.3,371.8C1153.4,376.8 1164.3,384.1 1168.8,392.7L1170.6,396.2L1172.4,392.7C1176.9,384.1 1187.7,376.8 1195.9,371.8C1208.1,364.4 1221.2,358 1233.9,351.3C1246.1,344.8 1258.6,337.8 1269.4,329.3C1278.7,322 1287.5,312.8 1291.1,301.4C1292.2,297.9 1292.7,294.2 1292.7,290.5C1292.7,273.3 1286.6,257.9 1280.2,242.3C1275.3,230.7 1268.4,215.8 1269.8,203M1170.5,391.8C1153.3,359 1050.4,339.8 1050.4,290.6C1050.4,241.4 1102.4,205.3 1050.9,172.5L1084.7,129.6C1145.3,119.4 1202.4,119.4 1256.2,129.6L1290,172.5C1238.5,205.3 1290.5,241.4 1290.5,290.6C1290.5,339.8 1187.7,359 1170.5,391.8" style="fill:rgb(73,89,96);fill-rule:nonzero;"/>
                    <path d="M1119.6,77.3L1127.2,76.3L1119.6,73.1L1119.6,77.3Z" style="fill:rgb(239,220,184);"/>
                    <path d="M1270.6,246.1C1264.9,232.4 1258.1,217 1259.8,201.8C1261.2,189.5 1267.9,179.9 1277.3,172L1278.8,170.7L1251.7,136.8L1250.9,136.7C1197.6,127.1 1143.3,128.2 1090,136.8L1089.2,136.9L1062.2,170.7L1063.7,172C1073.1,179.8 1079.8,189.4 1081.2,201.8C1082.9,216.9 1076.1,232.4 1070.4,246.1C1064.5,260.3 1058.6,274.9 1058.6,290.5C1058.6,293.2 1059,295.8 1059.8,298.4C1065.8,317.7 1094.9,333.3 1112,342.3C1124.9,349.1 1138.1,355.5 1150.5,363.1C1157,367.1 1163.5,371.4 1168.9,376.7L1170.3,378.1L1171.7,376.7C1177.2,371.4 1183.7,367.1 1190.1,363.1C1202.6,355.5 1215.7,349.1 1228.6,342.3C1247.2,332.4 1282,314.4 1282,290.5C1282.3,274.9 1276.5,260.4 1270.6,246.1M1227.9,340.6C1215,347.4 1201.7,353.9 1189.3,361.5C1183,365.3 1176.2,369.9 1170.5,375.4C1164.8,370 1158,365.4 1151.7,361.5C1139.2,353.9 1126,347.5 1113.1,340.6C1096.8,332 1067.6,316.5 1061.9,297.9C1061.2,295.5 1060.8,293.1 1060.8,290.6C1060.8,275.3 1066.6,260.9 1072.4,247C1078.2,232.9 1085.1,217.3 1083.4,201.7C1081.9,188.6 1074.8,178.6 1065.2,170.6L1079.6,152.6L1115,187.5C1092.6,225.3 1097.9,286 1131.7,312.4C1142.9,321.2 1156.3,325.4 1170.6,325.4C1195.2,325.4 1213.2,313.3 1224.6,295.6L1254.6,325.2C1245.1,331.6 1235.1,336.8 1227.9,340.6M1176.5,157.6C1176.7,157.6 1177,157.7 1177.2,157.7C1182.2,158.2 1186.9,159.3 1191.2,160.8L1191.3,160.8C1191.7,160.9 1192.2,161.1 1192.7,161.3C1192.8,161.3 1192.8,161.4 1192.9,161.4C1193.4,161.6 1193.8,161.8 1194.4,162C1194.5,162.1 1194.6,162.1 1194.7,162.1C1194.8,162.2 1195,162.2 1195.1,162.3C1195.2,162.3 1195.3,162.4 1195.5,162.5C1199.9,164.5 1204,167 1207.7,170C1207.8,170 1207.8,170.1 1207.8,170.1C1208.4,170.6 1209.3,171.3 1210.2,172.2C1210.4,172.4 1210.7,172.6 1210.9,172.9C1211,173 1211.1,173.1 1211.1,173.1C1214.9,176.6 1218.2,180.6 1221.2,185C1221.2,185 1221.2,185.1 1221.3,185.1C1221.4,185.2 1221.4,185.2 1221.4,185.3C1221.7,185.8 1222,186.3 1222.3,186.6C1222.2,186.4 1222.1,186.2 1221.9,186L1222.3,186.6L1222.4,186.7C1222.4,186.8 1222.5,186.8 1222.5,186.9C1225.1,191 1227.3,195.4 1229.2,200L1228.7,200C1220.9,200.1 1217.1,204.1 1214.2,208.6C1214.1,208.8 1213.3,210.1 1212.8,211C1211.5,213.2 1210.4,215.3 1209,217C1209.3,215.9 1209.5,214.8 1209.7,213.7C1209.8,213.2 1209.8,212.7 1209.9,212.2C1209.9,211.6 1210,210.4 1210,210.4C1209.9,206.5 1207.9,202.9 1206.8,199.2C1209.3,198.4 1211.9,198.2 1214.4,196.7C1215.9,195.7 1215.9,193.5 1214.9,192.1C1214.9,192.1 1214.8,191.3 1214.6,190.9C1214.5,190.7 1214.2,190.3 1214,190C1213.7,189.6 1213.3,189.2 1212.8,188.9C1212.2,187.6 1210.7,186.5 1209.3,186.8C1208.1,187 1206.8,187.7 1205.7,188.2C1204.3,188.9 1202.9,189.5 1201.4,190C1201,190.1 1200.5,190.3 1200.1,190.4C1198.5,189.2 1196.8,188.2 1195,187.3C1194.4,187 1193.8,186.7 1192.8,186.3C1192.3,186.1 1191.7,185.9 1191.2,185.7C1187.6,184.4 1183.8,183.7 1180,183.4C1178.7,183.3 1177.5,183.3 1175.8,183.2L1173.8,183.2C1172.4,183.2 1169.9,182.9 1169.6,184.8C1169.3,186.7 1171.9,187.1 1173.2,187.5C1173.3,187.5 1173.3,187.5 1173.4,187.6C1174.5,187.9 1173.7,187.7 1177.2,188.6C1180.9,189.6 1184.5,190.6 1187.7,192.4C1185.8,192.7 1184.4,194.1 1183.5,196L1183.1,196.9C1182.7,198 1182.4,199.2 1182.2,200.2L1181.8,202.4L1184.5,201.7C1185.6,201.4 1186.9,201.3 1188.1,201C1189.3,201.1 1190.7,201.3 1191.7,201.7L1191.8,201.7C1192.7,202 1193.6,202.4 1194.4,202.8C1194.5,202.8 1194.5,202.9 1194.6,202.9C1195.7,203.4 1196.2,203.7 1196.4,204C1196.4,204.1 1196.5,204.1 1196.5,204.2L1196.5,204.3C1197.9,206.8 1198.7,211.1 1199.1,214.6L1199.1,214.8C1199.2,215.2 1199.2,215.8 1199.3,216.4C1199.4,217 1199.4,217.6 1199.5,218.2L1199.6,219.1C1198.6,218.9 1197.6,218.6 1196.9,218.4C1196.6,218.3 1196.4,218.3 1196.2,218.2L1196,218.2C1195.1,218 1193.4,217.5 1192.4,217.3C1191.8,217.2 1191.2,217.1 1190.6,217C1187.8,216.6 1184.9,218.3 1182.8,219.9C1182.1,220.4 1181.5,220.9 1180.9,221.5C1178.8,223.5 1177.7,224.7 1176.5,226C1176.3,226.3 1176,226.5 1175.8,226.8C1174.7,228.2 1173.7,229.4 1172.7,230.9C1172.3,231.5 1171.8,232.2 1171.4,232.8C1170.9,233.7 1170.4,234.4 1170.1,235C1169.5,236.1 1169,237.1 1168.6,238.1L1152.4,238.1L1152.4,208.2L1146.2,208.2L1146,204.7L1147.9,204.7L1147.9,198.1L1146.3,198.1L1146.3,196L1147.6,196L1147.6,194C1147.6,191.9 1146.1,190.3 1144.3,189.5L1144.4,188.9C1144.4,187.5 1143.5,186.4 1142.3,186C1142,185.9 1141.7,185.9 1141.4,185.9L1140.6,185.9C1139.2,186.2 1138.1,187.4 1138.1,188.9L1138.2,189.6C1136.4,190.4 1135,191.9 1135,194L1135,196.2L1136.3,196.2L1136.3,198.3L1134.7,198.3L1134.7,204.9L1136.7,204.9L1136.5,208.4L1130.2,208.4L1130.2,238.3L1104.2,238.3L1104.2,237.1C1104.2,236.8 1104.1,236.3 1104.2,235.6C1104.3,234 1104.4,233.5 1104.5,231.6C1104.5,231.3 1104.6,231 1104.6,230.7C1104.6,230.5 1104.6,230.2 1104.7,230C1105,226.5 1105.1,225.5 1105.6,222.3C1105.7,221.8 1105.8,221.3 1105.8,220.8C1106.2,218.4 1106.6,216.5 1107,214.8C1107.2,213.9 1107.4,213.2 1107.6,212.4C1107.6,212.3 1107.7,212.2 1107.7,212.2C1107.9,211.3 1108.2,210.4 1108.5,209.2C1108.9,207.8 1109.3,206.5 1109.8,205.2C1110.1,204.2 1110.5,203.3 1110.8,202.4C1110.8,202.3 1110.9,202.2 1110.9,202.1C1111.9,199.3 1112.1,198.9 1113.3,196.3C1113.4,196.2 1113.4,196 1113.5,195.9C1114.9,192.9 1116.4,190.1 1118.1,187.4C1119.1,185.6 1120.8,183.3 1122.5,181.2C1122.8,180.9 1123,180.5 1123.3,180.2C1123.4,180.1 1123.4,180 1123.5,179.9C1125.4,177.5 1126.9,175.8 1129,173.9C1129.1,173.9 1129.1,173.8 1129.2,173.8C1131.9,171.2 1134.9,168.9 1138.1,166.8C1138.2,166.8 1138.2,166.7 1138.3,166.7C1140.4,165.3 1139.5,166 1142,164.6C1142.4,164.4 1142.7,164.2 1143,164.1C1146.3,162.4 1149.9,161 1153.7,160C1153.8,160 1153.8,159.9 1153.9,159.9C1155.7,159.4 1157.1,159.1 1158.5,158.8C1162.3,158.1 1166.4,157.7 1170.6,157.7L1171.4,157.7C1172.2,157.7 1173,157.7 1174,157.8L1174.9,157.8C1175.2,157.5 1175.8,157.6 1176.5,157.6M1104.1,240.1L1105.8,240.1L1105.7,240.1L1167.4,240.1C1165.2,240.8 1163.3,241.5 1161.6,242.3L1161.1,242.5C1160.6,242.8 1160.1,243 1159.6,243.3C1159,243.6 1158.5,243.9 1158,244.3C1153,247.5 1151.1,251.5 1151,256C1151,258 1151.3,260.2 1152,262.4L1152.2,263.1L1152.2,263.2C1152.4,264 1152.7,264.8 1153,265.6C1154,268.3 1155.3,270.8 1156.5,273.4C1157.4,275.2 1158.4,277 1159.4,278.9C1163.6,286.8 1168.3,295.1 1170.2,304C1171.3,309.2 1171.4,314.6 1169.5,319.8L1169.5,319.9C1169.3,320.5 1169.1,321 1168.8,321.6C1168.6,322 1168.4,322.5 1168.2,322.9C1166.6,322.8 1164.9,322.7 1163.3,322.6C1154.5,321.7 1145.9,318.9 1138.3,314.2C1114.1,298.7 1103.2,267.5 1104.1,240.1ZM1137.1,212.8L1137.1,210.1L1139.8,210.1L1139.8,212.8L1142.5,212.8L1142.5,210.1L1145.2,210.1L1145.2,212.8L1147.9,212.8L1147.9,210.1L1150.6,210.1L1150.6,215.9L1131.7,215.9L1131.7,210.1L1134.4,210.1L1134.4,212.8L1137.1,212.8ZM1141.1,190.7C1143.6,190.7 1145.6,192.2 1145.6,194.1L1145.6,194.5L1136.5,194.5L1136.5,194C1136.6,192.2 1138.6,190.7 1141.1,190.7M1139.7,188.9C1139.7,188.1 1140.3,187.5 1141.1,187.5C1141.9,187.5 1142.5,188.1 1142.5,188.9L1142.5,189C1142.1,188.9 1141.6,188.9 1141.2,188.9C1140.7,188.9 1140.3,188.9 1139.8,189L1139.7,188.9ZM1144.3,196.2L1144.3,198.3L1142.1,198.3L1142.1,196.2L1144.3,196.2ZM1140.2,198.3L1137.9,198.3L1137.9,196.2L1140.2,196.2L1140.2,198.3ZM1146,203.2L1136.2,203.2L1136.2,200L1146,200L1146,203.2ZM1144.3,208.4L1138,208.4L1138.2,204.9L1144.1,204.9L1144.3,208.4ZM1150.6,225.9L1131.7,225.9L1131.7,217.7L1150.6,217.7L1150.6,225.9ZM1150.6,227.7L1150.6,238.2L1143.6,238.2L1143.6,232.5C1143.6,230.9 1142.5,229.5 1141.1,229.5C1139.6,229.5 1138.6,230.9 1138.6,232.5L1138.6,238.2L1131.8,238.2L1131.8,227.7L1150.6,227.7ZM1170.4,322.8C1176.1,310.7 1171.8,298.5 1165.9,286.9C1162.5,280.2 1158.7,273.8 1156,267.7C1154.2,263.7 1152.4,258.6 1153.1,254.1C1153.6,250.9 1155.6,247.8 1158.3,246.1C1160.7,244.6 1162.9,243.5 1165.5,242.6L1165.8,242.5L1166.8,242.1C1160,254.9 1162.5,267.1 1173.1,278.2C1179.1,284.5 1187.7,287.8 1196.6,290.8L1196.1,304.9L1204.1,304.9L1204.1,303.5C1204,300.1 1203.9,296.6 1203.8,293.2C1209.1,294.9 1214.2,296.6 1218.8,299C1207.8,313.3 1191.7,322.8 1170.4,322.8ZM1203.7,266.9L1206.3,269.6L1207.3,268.7L1204.4,265.7C1206.5,266.8 1208.4,268.3 1209.9,270.3L1210,270.7L1209.9,271.2L1209.3,277.3L1206.3,274.1L1206,273.9L1205.9,273.4C1205.2,270.9 1204.7,268.9 1203.7,266.9M1204.6,274.3L1203.3,277.2C1203.2,274.5 1203.1,271.8 1203.1,269.1C1203.7,270.6 1204.1,272.2 1204.6,274L1204.7,274.1L1204.6,274.3ZM1206.2,265L1209,265.9L1209.4,264.6L1206,263.5C1207.6,263.6 1209.1,263.8 1210.6,264.3L1210.9,264.5L1211.1,264.8L1214.4,270.6L1211.4,270L1211.3,269.9C1209.9,267.9 1208.2,266.3 1206.2,265M1211.5,263.1L1211.3,263.2L1211.1,263.1C1209.4,262.5 1207.6,262.3 1205.8,262.2L1209.6,261.6L1209.4,260.2L1204.9,261C1206.2,260.2 1207.7,259.6 1208.8,259.1L1209.2,258.9L1209.7,259L1216.2,260L1211.5,263.1ZM1210.6,250.5L1209,251.2L1210.8,249.9L1210.6,250.5ZM1210.2,252.1L1208.8,257.3L1208.8,257.5L1208.6,257.6C1206.7,258.3 1204.5,259.4 1202.6,260.8L1207,255.8L1205.9,254.9L1202,259.3C1202.6,257.7 1203.3,256.1 1204.3,254.7L1204.5,254.4L1204.8,254.3L1210.2,252.1ZM1197.7,299L1197.8,296.9L1202.7,300.5L1202.8,302.7L1197.7,299ZM1200.8,303.4L1197.9,303.4L1197.7,303.2L1197.8,301.1L1200.8,303.4ZM1201.7,269.5L1201.8,271.7L1198.8,269.5L1198.9,267.4L1201.7,269.5ZM1198.9,265.2L1199,263.3L1199.1,263.2L1201.7,265.1L1201.7,267.3L1198.9,265.2ZM1201.9,273.9L1202,276.1L1198.7,273.6L1198.8,271.5L1201.9,273.9ZM1202,278.4L1202.1,280.6L1198.5,277.9L1198.6,275.8L1202,278.4ZM1202.1,282.8L1202.2,285L1198.3,282.1L1198.4,280L1202.1,282.8ZM1202.3,287.3L1202.4,289.5L1198.2,286.4L1198.3,284.3L1202.3,287.3ZM1202.4,291.7L1202.5,293.9L1198,290.6L1198.1,288.5L1202.4,291.7ZM1202.6,296.1L1202.7,298.3L1198,294.8L1198.1,292.7L1202.6,296.1ZM1203.1,254C1202.2,255.3 1201.5,256.7 1201,258.2L1201,253.2L1199.6,253.2L1199.6,259.3C1199,257.4 1198.1,255.6 1197,253.9L1196.9,253.5L1200,247.6L1203.2,253.7L1203.2,253.9L1203.1,254ZM1198.1,259.2L1194.3,255.3L1193.3,256.3L1198.4,261.4L1198.3,261.4C1196.4,259.8 1193.8,258.5 1191.7,257.7L1191.5,257.4L1190.1,252.1L1195.3,254.2L1195.6,254.4L1195.8,254.6C1196.7,256 1197.5,257.5 1198.1,259.2M1189.5,250.3L1189.3,249.7L1191,251L1189.5,250.3ZM1190.4,258.9L1190.8,258.8L1191.2,258.9L1195.1,260.8L1191.2,260.2L1191,261.6L1194.8,262.2C1193,262.3 1191.2,262.6 1189.6,263.1L1189.2,263.1L1184.4,259.9L1190.4,258.9ZM1189.5,264.8L1189.7,264.5L1190,264.3C1191.5,263.8 1193.1,263.6 1194.7,263.5L1191.2,264.7L1191.6,266L1194.4,265.1C1192.5,266.3 1190.9,267.8 1189.4,269.7L1189.3,269.8L1189.2,270L1186.2,270.6L1189.5,264.8ZM1190.7,270.3C1192.1,268.5 1193.8,267.1 1195.7,265.9L1193.1,268.4L1194.1,269.4L1197.3,266.2C1196,268.5 1195.3,270.7 1194.6,273.4L1194.5,273.7L1194.3,273.9L1191.3,277.1L1190.7,271L1190.7,270.3ZM1196.1,273.5C1196.5,272 1196.9,270.7 1197.4,269.4L1197.2,276.8L1196.1,274.2L1196.1,273.5ZM1203.8,291.2C1203.7,287.6 1203.6,284 1203.4,280.4L1204.6,277.6L1204.5,281.6L1205.9,281.6L1206,277.8L1207.4,281.4L1208.7,280.9L1207.3,277.1L1210,279.9L1211,279L1210.5,278.5L1210.9,274.4L1212,278.4L1213.4,278L1212.4,274.1L1214.7,277.4L1215.9,276.6L1213.3,273L1216.8,275.2L1217.6,274L1214.3,271.9L1215.4,272.1L1215.8,272.8L1216.6,272.4L1218.1,272.7L1218.4,271.3L1218,271.2L1218.8,270.4L1215.4,266.9L1219.6,269.3L1220.3,268.1L1215.7,265.5L1220.8,266.6L1221.1,265.2L1216.9,264.3L1221.2,264.2L1221.1,262.8L1216.3,263L1220.9,261.5L1220.5,260.2L1215.9,261.7L1218.2,260.1L1219.9,258.9L1219.1,257.8L1217.8,258.6L1214.4,258.1L1218.9,257.6L1218.7,256.2L1213.7,256.7L1218.3,254.8L1217.7,253.5L1213.1,255.5L1216.9,252.3L1216,251.3L1212.2,254.5L1214.9,250.2L1213.7,249.5L1213.6,249.6L1213.4,249.2L1212.1,249.7L1212.3,249L1211.8,248.9L1212.7,248.2L1211.9,247.1L1207.5,250.3L1210.7,246.1L1209.6,245.3L1206.1,249.8L1208,244.5L1206.7,244L1205.1,248.5L1205.5,243.8L1204.1,243.7L1203.6,248.9L1202.6,243.7L1201.2,244L1202.2,249.2L1200.6,246L1201.2,244.8L1200,244.2L1199.8,244.5L1199.8,244.4L1198.6,245L1199.1,246L1197.6,249L1198.6,243.9L1197.2,243.6L1196.2,248.8L1195.7,243.6L1194.3,243.7L1194.7,248.4L1193.1,243.9L1191.8,244.4L1193.7,249.7L1190.2,245.1L1189.1,245.9L1192.3,250.1L1187.9,246.9L1187.1,248L1188.2,248.8L1187.6,249L1187.8,249.6L1186.4,249L1186.1,249.7L1185.1,250.3L1187.8,254.6L1184,251.4L1183.1,252.4L1186.9,255.6L1182.3,253.6L1181.7,254.9L1186.3,256.8L1181.3,256.3L1181.1,257.7L1185.6,258.2L1182.5,258.7L1181.3,257.9L1180.5,259L1181.7,259.8L1181.8,260.1L1182.2,260L1184.6,261.6L1180,260.1L1179.6,261.4L1184.2,262.9L1179.4,262.7L1179.3,264.1L1183.6,264.2L1179.4,265.1L1179.7,266.5L1184.8,265.4L1180.2,268L1180.9,269.2L1185.1,266.8L1181.7,270.3L1182.5,271.1L1182.1,271.2L1182.4,272.6L1183.9,272.3L1184.7,272.7L1185.1,272L1186.2,271.8L1182.9,273.9L1183.7,275.1L1187.2,272.9L1184.6,276.5L1185.8,277.3L1188.1,274L1187.1,277.9L1188.5,278.3L1189.6,274.3L1190,278.4L1189.5,278.9L1190.5,279.8L1193.2,277L1191.8,280.8L1193.1,281.3L1194.5,277.7L1194.5,281.5L1195.9,281.5L1195.9,277.5L1197,280L1196.7,288.8C1188.2,286 1180.1,282.7 1174.4,276.8C1161.5,263.3 1163.6,250.9 1169,241.6L1169.2,241.2L1169.2,241.1L1169.4,240.7L1169.6,240.4L1172.8,240.4L1236.4,241.1C1236.3,261.8 1230.7,282.3 1219.5,297.7C1215,294.9 1209.4,293 1203.8,291.2M1214.8,268.4L1217.6,271.2L1216.3,270.9L1214.8,268.4ZM1211.1,253.8L1211.7,251.4L1212.8,250.9L1211.1,253.8ZM1189,253.8L1187.1,250.8L1188.3,251.3L1189,253.8ZM1185.8,268.4L1184.3,271L1183,271.3L1185.8,268.4ZM1236.8,238.6L1201.5,238.6C1213.4,231.2 1216.9,221.2 1223.4,221.9C1227.1,222.3 1232.3,223.6 1235.7,224C1236.4,228.8 1236.8,233.6 1236.8,238.4L1236.8,238.6ZM1234.6,222.2C1232.9,221.9 1231.2,221.6 1229.5,221.3C1227.5,220.9 1225.5,220.5 1223.6,220.3C1222.8,220.2 1222.1,220.2 1221.3,220.4C1217.7,221.1 1214.7,224.6 1212.3,227.1C1208.6,231 1205.2,234.4 1200.6,237.3L1197.8,238.8L1170.4,238.5C1174,230.6 1184.7,218 1190.3,218.9C1193.1,219.3 1196.7,220.5 1199.8,221.2C1200.1,224.4 1200.4,227.7 1201,230.8C1201.2,231.9 1201.1,234.2 1203.1,234.1C1205,234 1204.8,231.7 1205,230.6C1205.6,227.1 1207,223.8 1208.1,220.3C1215.1,215.8 1215.3,201.9 1228.8,201.8C1229.2,201.8 1229.6,201.8 1230,201.9C1232.5,208.4 1234.3,215.3 1235.4,222.4L1234.6,222.2ZM1189,194.2L1197.1,192.5C1201.9,192.8 1207.5,188.9 1209.7,188.5C1210.2,188.4 1211,188.9 1211.2,189.5L1206.4,191.7L1207,192.9L1212.2,190.5C1212.8,191 1213.2,191.9 1213.1,192.4L1207.6,193.7L1207.9,195.1L1213.7,193.7C1213.8,194.2 1213.8,194.9 1213.4,195.1C1210.8,196.8 1207.4,196.8 1204.6,198C1205.6,202.1 1208.3,206.8 1208.2,211.1C1208.2,211.5 1208.1,212 1208.1,212.4L1205.1,206.1L1203.8,206.7L1207.7,214.7C1207.4,216.2 1207,217.6 1206.5,219.1L1203.4,208.7L1202.1,209.1L1205.8,221.4C1204.8,224.3 1203.7,227.2 1203.2,230.1C1202.8,232.5 1203.2,233.1 1202.7,230.2C1201.2,222.1 1201.2,207.8 1197.4,202.5C1195.9,201.5 1194.1,200.7 1192.2,200C1191.2,199.6 1189.7,199.3 1187.8,199.2C1186.8,199.5 1184.8,199.9 1183.7,200.2C1184.1,198.4 1185.3,193.8 1189,194.2M1173.6,186C1170.4,185.1 1170.5,185.2 1173.8,185.1C1179.6,185 1185.2,185.5 1190.6,187.5C1192.9,188.3 1195.2,189.5 1197.5,190.9L1196.9,190.9L1190.3,192.3C1185.3,188.8 1179.5,187.7 1173.6,186M1256.8,323.5L1226,293.1C1248.8,255.1 1243,193.7 1208.6,167.4C1197.5,158.9 1184.5,154.8 1170.4,154.8C1145.8,154.8 1127.8,167 1116.3,184.9L1081.1,150.2L1090.2,138.8C1143.4,130.2 1197.3,129.1 1250.4,138.7L1275.8,170.5C1266.2,178.5 1259,188.5 1257.6,201.6C1255.8,217.1 1262.7,232.8 1268.6,246.9C1274.4,260.8 1280.2,275.2 1280.2,290.5C1280.3,303.3 1269.5,314.5 1256.8,323.5" style="fill:rgb(73,89,96);fill-rule:nonzero;"/>
                </g>
            </g>
            <g>
                <g>
                    <path d="M1344.6,132.6L1344.6,131.5L1351.8,122.6L1352.9,122.6C1355.7,125.3 1361.4,128.4 1366.2,128.4C1369.9,128.4 1372.3,127.2 1372.3,125.3C1372.3,122.6 1368.9,122.3 1363.8,120.9C1356,118.7 1346.9,114.4 1346.9,104.4C1346.9,95.2 1355.2,88.8 1367.2,88.8C1375.7,88.8 1383.5,92.1 1387.3,96.3L1387.3,97.4L1380.1,105.9L1379,105.9C1376.8,103.9 1372.5,100.8 1367.5,100.8C1364.5,100.8 1362.6,101.9 1362.6,103.7C1362.6,106.2 1366.1,107.4 1369.5,108.4C1378.2,110.9 1388.1,113.8 1388.1,125.3C1388.1,135.8 1378.3,141.2 1367,141.2C1357.4,141.2 1349.2,137.6 1344.6,132.6Z" style="fill:white;fill-rule:nonzero;"/>
                    <path d="M1413.7,102.1L1413.7,109.2L1431.3,109.2L1431.3,120.9L1413.7,120.9L1413.7,127.9L1437,127.9L1437,140.3L1398.3,140.3L1398.3,89.7L1436.8,89.7L1436.8,102.1L1413.7,102.1Z" style="fill:white;fill-rule:nonzero;"/>
                    <path d="M1444,115C1444,100 1456.1,88.8 1472.1,88.8C1480.8,88.8 1488.5,92.6 1493.4,98.5L1493.4,99.6L1484.1,107.5L1483,107.5C1480.4,104.7 1476.5,102.6 1472,102.6C1465.1,102.6 1459.6,107.8 1459.6,115C1459.6,122.1 1465,127.4 1472,127.4C1476.4,127.4 1480.4,125.3 1483,122.5L1484.1,122.5L1493.4,130.4L1493.4,131.5C1488.7,137.2 1481.3,141.2 1471.9,141.2C1456.2,141.2 1444,130 1444,115Z" style="fill:white;fill-rule:nonzero;"/>
                    <path d="M1546.8,139.1L1546.1,140.3L1530.8,140.3L1521.2,122.6L1517.5,122.6L1517.5,140.3L1502.1,140.3L1502.1,89.7L1525.3,89.7C1538.6,89.7 1545.7,96.2 1545.7,106.6C1545.7,113.2 1542,117.8 1536.5,120.4L1546.8,139.1ZM1517.6,112.4L1524.8,112.4C1527.7,112.4 1530.2,110.8 1530.2,107.4C1530.2,104 1527.7,102.1 1524.8,102.1L1517.6,102.1L1517.6,112.4Z" style="fill:white;fill-rule:nonzero;"/>
                    <path d="M1571.9,102.1L1571.9,109.2L1589.5,109.2L1589.5,120.9L1571.9,120.9L1571.9,127.9L1595.2,127.9L1595.2,140.3L1556.5,140.3L1556.5,89.7L1595,89.7L1595,102.1L1571.9,102.1Z" style="fill:white;fill-rule:nonzero;"/>
                    <path d="M1632.7,140.3L1617.3,140.3L1617.3,102.2L1601.9,102.2L1601.9,89.7L1648.1,89.7L1648.1,102.1L1632.7,102.1L1632.7,140.3Z" style="fill:white;fill-rule:nonzero;"/>
                    <path d="M1701.5,139.1L1700.8,140.3L1685.1,140.3L1682.1,132.7L1664,132.7L1660.9,140.3L1645.9,140.3L1645.2,139.1L1668.4,89.7L1678.2,89.7L1701.5,139.1ZM1678.3,122.5L1673.4,109.6L1668.1,122.5L1678.3,122.5Z" style="fill:white;fill-rule:nonzero;"/>
                    <path d="M1753.5,139.1L1752.8,140.3L1737.5,140.3L1727.9,122.6L1724.2,122.6L1724.2,140.3L1708.8,140.3L1708.8,89.7L1732,89.7C1745.3,89.7 1752.4,96.2 1752.4,106.6C1752.4,113.2 1748.7,117.8 1743.2,120.4L1753.5,139.1ZM1724.3,112.4L1731.5,112.4C1734.4,112.4 1736.9,110.8 1736.9,107.4C1736.9,104 1734.4,102.1 1731.5,102.1L1724.3,102.1L1724.3,112.4Z" style="fill:white;fill-rule:nonzero;"/>
                    <rect x="1763.2" y="89.7" width="15.4" height="50.5" style="fill:white;fill-rule:nonzero;"/>
                    <path d="M1842.3,139.1L1841.6,140.3L1825.9,140.3L1822.9,132.7L1804.8,132.7L1801.7,140.3L1786.7,140.3L1786,139.1L1809.2,89.7L1819,89.7L1842.3,139.1ZM1819,122.5L1814.1,109.6L1808.8,122.5L1819,122.5Z" style="fill:white;fill-rule:nonzero;"/>
                    <path d="M1916,114.9C1916,130.1 1905.8,140.2 1889.3,140.2L1865.7,140.2L1865.7,89.7L1889.3,89.7C1905.8,89.7 1916,99.9 1916,114.9ZM1900.3,115C1900.3,106.8 1895.4,102.2 1888.6,102.2L1881.1,102.2L1881.1,127.9L1888.6,127.9C1895.4,127.8 1900.3,123.2 1900.3,115Z" style="fill:white;fill-rule:nonzero;"/>
                    <path d="M1923.4,115C1923.4,100 1935.5,88.8 1951.6,88.8C1967.7,88.8 1979.8,100 1979.8,115C1979.8,129.9 1967.7,141.2 1951.6,141.2C1935.5,141.2 1923.4,130 1923.4,115ZM1964.1,115C1964.1,107.8 1958.5,102.6 1951.6,102.6C1944.7,102.6 1939.1,107.7 1939.1,115C1939.1,122.2 1944.7,127.4 1951.6,127.4C1958.5,127.4 1964.1,122.2 1964.1,115Z" style="fill:white;fill-rule:nonzero;"/>
                </g>
                <g>
                    <path d="M1393.7,222.6L1391,200L1381.4,222.6L1372.5,222.6L1362.9,199.8L1360.2,222.6L1344.9,222.6L1352.7,172.1L1362,172.1L1376.9,203.7L1391,172.1L1400.3,172.1L1408,222.6L1393.7,222.6Z" style="fill:white;fill-rule:nonzero;"/>
                    <path d="M1433.1,184.5L1433.1,191.5L1450.7,191.5L1450.7,203.2L1433.1,203.2L1433.1,210.2L1456.4,210.2L1456.4,222.6L1417.7,222.6L1417.7,172.1L1456.2,172.1L1456.2,184.5L1433.1,184.5Z" style="fill:white;fill-rule:nonzero;"/>
                    <rect x="1467.2" y="172.1" width="15.4" height="50.5" style="fill:white;fill-rule:nonzero;"/>
                    <path d="M1492.5,197.3C1492.5,182.3 1504.6,171.1 1520.7,171.1C1536.8,171.1 1548.9,182.3 1548.9,197.3C1548.9,212.2 1536.8,223.5 1520.7,223.5C1504.7,223.5 1492.5,212.3 1492.5,197.3ZM1533.3,197.3C1533.3,190.1 1527.7,184.9 1520.8,184.9C1513.9,184.9 1508.3,190 1508.3,197.3C1508.3,204.5 1513.9,209.7 1520.8,209.7C1527.7,209.7 1533.3,204.5 1533.3,197.3Z" style="fill:white;fill-rule:nonzero;"/>
                    <path d="M1625.9,221.4L1625.2,222.6L1609.5,222.6L1606.5,215L1588.4,215L1585.3,222.6L1570.3,222.6L1569.6,221.4L1592.8,172L1602.6,172L1625.9,221.4ZM1602.7,204.9L1597.8,192L1592.5,204.9L1602.7,204.9Z" style="fill:white;fill-rule:nonzero;"/>
                    <path d="M1679.3,222.6L1676.6,200L1667,222.6L1658.1,222.6L1648.5,199.8L1645.8,222.6L1630.5,222.6L1638.3,172.1L1647.6,172.1L1662.5,203.7L1676.6,172.1L1685.9,172.1L1693.6,222.6L1679.3,222.6Z" style="fill:white;fill-rule:nonzero;"/>
                    <path d="M1746.4,208.4C1746.4,217.2 1739,222.6 1727.9,222.6L1703.2,222.6L1703.2,172.1L1726.8,172.1C1737,172.1 1743.7,177.5 1743.7,185.3C1743.7,190 1741.2,193.6 1737.2,195.6C1741.8,197.4 1746.4,201.4 1746.4,208.4ZM1724,183L1718.6,183L1718.6,192.2L1724,192.2C1727,192.2 1729.1,190.4 1729.1,187.6C1729.1,184.8 1727.1,183 1724,183ZM1731.4,206.6C1731.4,203.6 1729,201.5 1725.3,201.5L1718.6,201.5L1718.6,211.6L1725.3,211.6C1728.9,211.6 1731.4,209.6 1731.4,206.6Z" style="fill:white;fill-rule:nonzero;"/>
                    <rect x="1756.1" y="172.1" width="15.4" height="50.5" style="fill:white;fill-rule:nonzero;"/>
                    <path d="M1799.5,184.5L1799.5,191.5L1817.1,191.5L1817.1,203.2L1799.5,203.2L1799.5,210.2L1822.8,210.2L1822.8,222.6L1784.1,222.6L1784.1,172.1L1822.6,172.1L1822.6,184.5L1799.5,184.5Z" style="fill:white;fill-rule:nonzero;"/>
                    <path d="M1881.2,172.1L1881.2,222.6L1871.1,222.6L1849,197.3L1849,222.6L1833.6,222.6L1833.6,172.1L1843.7,172.1L1865.8,197.4L1865.8,172.1L1881.2,172.1Z" style="fill:white;fill-rule:nonzero;"/>
                    <path d="M1920.6,222.6L1905.2,222.6L1905.2,184.5L1889.8,184.5L1889.8,172.1L1936,172.1L1936,184.5L1920.6,184.5L1920.6,222.6Z" style="fill:white;fill-rule:nonzero;"/>
                    <path d="M1959.9,184.5L1959.9,191.5L1977.5,191.5L1977.5,203.2L1959.9,203.2L1959.9,210.2L1983.2,210.2L1983.2,222.6L1944.5,222.6L1944.5,172.1L1983,172.1L1983,184.5L1959.9,184.5Z" style="fill:white;fill-rule:nonzero;"/>
                </g>
                <g>
                    <path d="M1363.2,266.8L1363.2,273.8L1380.8,273.8L1380.8,285.5L1363.2,285.5L1363.2,292.5L1386.5,292.5L1386.5,304.9L1347.8,304.9L1347.8,254.4L1386.3,254.4L1386.3,266.8L1363.2,266.8Z" style="fill:white;fill-rule:nonzero;"/>
                    <path d="M1461.5,304.9L1458.8,282.3L1449.2,304.9L1440.3,304.9L1430.7,282.1L1428,304.9L1412.7,304.9L1420.5,254.4L1429.8,254.4L1444.7,286L1458.8,254.4L1468.1,254.4L1475.8,304.9L1461.5,304.9Z" style="fill:white;fill-rule:nonzero;"/>
                    <path d="M1499.5,254.3L1499.5,282C1499.5,288.1 1503.2,292.1 1508.7,292.1C1514.2,292.1 1518,288.1 1518,282L1518,254.3L1533.2,254.3L1533.2,281C1533.2,295.8 1523.4,305.7 1508.8,305.7C1494,305.7 1484.2,295.8 1484.2,281L1484.2,254.3L1499.5,254.3Z" style="fill:white;fill-rule:nonzero;"/>
                    <path d="M1595.3,279.5C1595.3,294.7 1585.1,304.8 1568.6,304.8L1545,304.8L1545,254.3L1568.6,254.3C1585.1,254.4 1595.3,264.5 1595.3,279.5ZM1579.6,279.6C1579.6,271.4 1574.7,266.8 1567.9,266.8L1560.4,266.8L1560.4,292.5L1567.9,292.5C1574.7,292.4 1579.6,287.9 1579.6,279.6Z" style="fill:white;fill-rule:nonzero;"/>
                    <path d="M1654.2,303.7L1653.5,304.9L1637.8,304.9L1634.8,297.3L1616.7,297.3L1613.6,304.9L1598.6,304.9L1597.9,303.7L1621.1,254.3L1630.9,254.3L1654.2,303.7ZM1630.9,287.2L1626,274.3L1620.7,287.2L1630.9,287.2Z" style="fill:white;fill-rule:nonzero;"/>
                    <path d="M1709.1,254.4L1709.1,304.9L1699,304.9L1676.9,279.6L1676.9,304.9L1661.5,304.9L1661.5,254.4L1671.6,254.4L1693.7,279.7L1693.7,254.4L1709.1,254.4Z" style="fill:white;fill-rule:nonzero;"/>
                    <path d="M1734.8,279.6C1734.8,286.7 1740.2,292 1747.2,292C1751.6,292 1755.6,289.9 1758.2,287.1L1759.3,287.1L1768.6,295L1768.6,296.1C1764.6,300.9 1758.6,304.6 1751.1,305.6L1750.5,307.5C1756.8,307.5 1761.2,311.2 1761.2,316.4C1761.2,322.9 1755.9,327.4 1748.4,327.4C1744,327.4 1738.9,325.8 1735.7,323.5L1735.7,322.4L1739,317.7L1740.1,317.7C1741.8,318.8 1744.5,319.6 1746.8,319.6C1749.6,319.6 1751.5,318.4 1751.5,316.3C1751.5,313.5 1748.3,312 1742.5,313L1740.9,312L1742.9,305.6C1729.2,303.8 1719.1,293.3 1719.1,279.6C1719.1,264.6 1731.2,253.4 1747.2,253.4C1755.9,253.4 1763.6,257.2 1768.5,263.1L1768.5,264.2L1759.2,272.1L1758.1,272.1C1755.5,269.3 1751.6,267.2 1747.1,267.2C1740.2,267.3 1734.8,272.5 1734.8,279.6Z" style="fill:white;fill-rule:nonzero;"/>
                    <path d="M1827.7,303.7L1827,304.9L1811.3,304.9L1808.3,297.3L1790.2,297.3L1787.1,304.9L1772.1,304.9L1771.4,303.7L1794.6,254.3L1804.4,254.3L1827.7,303.7ZM1804.4,287.2L1799.5,274.3L1794.2,287.2L1804.4,287.2Z" style="fill:white;fill-rule:nonzero;"/>
                    <path d="M1901.4,279.5C1901.4,294.7 1891.2,304.8 1874.7,304.8L1851.1,304.8L1851.1,254.3L1874.7,254.3C1891.2,254.4 1901.4,264.5 1901.4,279.5ZM1885.7,279.6C1885.7,271.4 1880.8,266.8 1874,266.8L1866.5,266.8L1866.5,292.5L1874,292.5C1880.8,292.4 1885.7,287.9 1885.7,279.6Z" style="fill:white;fill-rule:nonzero;"/>
                    <path d="M1908.8,279.6C1908.8,264.6 1920.9,253.4 1937,253.4C1953.1,253.4 1965.2,264.6 1965.2,279.6C1965.2,294.5 1953.1,305.8 1937,305.8C1920.9,305.8 1908.8,294.6 1908.8,279.6ZM1949.5,279.6C1949.5,272.4 1943.9,267.2 1937,267.2C1930.1,267.2 1924.5,272.3 1924.5,279.6C1924.5,286.8 1930.1,292 1937,292C1943.9,292 1949.5,286.9 1949.5,279.6Z" style="fill:white;fill-rule:nonzero;"/>
                    <path d="M1990.7,279.6C1990.7,264.6 2002.8,253.4 2018.8,253.4C2027.5,253.4 2035.2,257.2 2040.1,263.1L2040.1,264.2L2030.8,272.1L2029.7,272.1C2027.1,269.3 2023.2,267.2 2018.7,267.2C2011.8,267.2 2006.3,272.4 2006.3,279.6C2006.3,286.7 2011.7,292 2018.7,292C2023.1,292 2027.1,289.9 2029.7,287.1L2030.8,287.1L2040.1,295L2040.1,296.1C2035.4,301.8 2028,305.8 2018.6,305.8C2002.9,305.8 1990.7,294.6 1990.7,279.6Z" style="fill:white;fill-rule:nonzero;"/>
                    <path d="M2083.6,304.9L2048.9,304.9L2048.9,254.4L2064.3,254.4L2064.3,292.5L2083.6,292.5L2083.6,304.9Z" style="fill:white;fill-rule:nonzero;"/>
                    <rect x="2092.1" y="254.4" width="15.4" height="50.5" style="fill:white;fill-rule:nonzero;"/>
                    <path d="M2166.1,304.9L2163.4,282.3L2153.8,304.9L2144.9,304.9L2135.3,282.1L2132.6,304.9L2117.3,304.9L2125.1,254.4L2134.4,254.4L2149.3,286L2163.4,254.4L2172.7,254.4L2180.4,304.9L2166.1,304.9Z" style="fill:white;fill-rule:nonzero;"/>
                    <path d="M2241.1,303.7L2240.4,304.9L2224.7,304.9L2221.7,297.3L2203.6,297.3L2200.5,304.9L2185.5,304.9L2184.8,303.7L2208,254.3L2217.8,254.3L2241.1,303.7ZM2217.8,287.2L2212.9,274.3L2207.6,287.2L2217.8,287.2Z" style="fill:white;fill-rule:nonzero;"/>
                </g>
            </g>
            <g>
                <path d="M43.9,270.4L43.9,267.4L63.7,242.9L66.7,242.9C74.4,250.4 90.3,258.8 103.5,258.8C113.8,258.8 120.5,255.6 120.5,250.2C120.5,242.7 111,242 97.1,238.2C75.6,232.2 50.2,220.1 50.2,192.6C50.2,167 73.2,149.4 106.3,149.4C130,149.4 151.5,158.4 162,170.3L162,173.3L142,196.9L139,196.9C133,191.3 121.2,182.7 107.2,182.7C99,182.7 93.7,185.7 93.7,190.7C93.7,197.6 103.4,200.8 112.8,203.6C136.9,210.5 164.2,218.7 164.2,250.3C164.2,279.3 137.1,294.4 105.9,294.4C79.3,294.3 56.6,284.4 43.9,270.4Z" style="fill:white;fill-rule:nonzero;"/>
                <path d="M234.3,186.4L234.3,205.8L282.9,205.8L282.9,238L234.3,238L234.3,257.3L298.8,257.3L298.8,291.7L191.8,291.7L191.8,152L298.2,152L298.2,186.4L234.3,186.4Z" style="fill:white;fill-rule:nonzero;"/>
                <path d="M455.1,291.7L447.6,229.1L421,291.7L396.5,291.7L369.8,228.7L362.3,291.7L319.9,291.7L341.4,152L367.2,152L408.5,239.3L447.4,152L473.2,152L494.5,291.8L455.1,291.8L455.1,291.7Z" style="fill:white;fill-rule:nonzero;"/>
                <path d="M661.8,288.5L659.9,291.7L616.5,291.7L608.3,270.6L558.2,270.6L549.6,291.7L508,291.7L506.1,288.5L570.4,152L597.5,152L661.8,288.5ZM597.5,242.7L583.9,207L569.3,242.7L597.5,242.7Z" style="fill:white;fill-rule:nonzero;"/>
                <path d="M667.6,221.8C667.6,180.3 701.1,149.3 745.4,149.3C769.5,149.3 790.8,159.8 804.3,176.2L804.3,179.2L778.5,201.1L775.5,201.1C768.4,193.4 757.4,187.6 745.2,187.6C726.1,187.6 711,202 711,221.8C711,241.6 726,256 745.2,256C757.5,256 768.4,250.2 775.5,242.5L778.5,242.5L804.3,264.4L804.3,267.4C791.2,283.1 770.8,294.3 744.7,294.3C701.3,294.3 667.6,263.3 667.6,221.8Z" style="fill:white;fill-rule:nonzero;"/>
                <path d="M870.5,186.4L870.5,205.8L919.1,205.8L919.1,238L870.5,238L870.5,257.3L935,257.3L935,291.7L827.9,291.7L827.9,152L934.3,152L934.3,186.4L870.5,186.4Z" style="fill:white;fill-rule:nonzero;"/>
            </g>
            <g>
                <path d="M1380.4,358.3C1380.4,362.9 1378.6,367 1375.5,370C1372.5,373 1368.2,374.8 1363.3,374.8C1353.5,374.8 1346.1,367.6 1346.1,357.9C1346.1,348.1 1353.7,341 1363.3,341C1368.9,341 1373.9,343.5 1376.9,347.3L1376.9,347.9L1372.1,352L1371.5,352C1369.6,349.7 1366.8,348.1 1363.5,348.1C1358.3,348.1 1354,352.2 1354,358C1354,363.7 1358.1,367.8 1363.6,367.8C1366,367.8 1368.2,367 1369.8,365.5C1371.1,364.3 1371.9,362.9 1372.2,361.2L1363.4,361.2L1363.4,355.4L1379.5,355.4L1380.1,355.9C1380.4,356.7 1380.4,357.6 1380.4,358.3Z" style="fill:white;fill-rule:nonzero;"/>
                <path d="M1383.6,357.9C1383.6,348.2 1391.3,341 1401.6,341C1411.8,341 1419.5,348.2 1419.5,357.9C1419.5,367.6 1411.8,374.8 1401.6,374.8C1391.4,374.9 1383.6,367.6 1383.6,357.9ZM1411.5,357.9C1411.5,352.1 1407.1,348 1401.6,348C1396.1,348 1391.7,352.1 1391.7,357.9C1391.7,363.6 1396.1,367.8 1401.6,367.8C1407.1,367.8 1411.5,363.6 1411.5,357.9Z" style="fill:white;fill-rule:nonzero;"/>
                <path d="M1454.3,342.2L1439.6,374.3L1435,374.3L1420.3,342.2L1420.7,341.6L1428.7,341.6L1437.3,362.6L1446.3,341.6L1454,341.6L1454.3,342.2Z" style="fill:white;fill-rule:nonzero;"/>
                <path d="M1466.1,347.9L1466.1,354.8L1478.5,354.8L1478.5,360.9L1466.1,360.9L1466.1,367.8L1482.2,367.8L1482.2,374.2L1458.3,374.2L1458.3,341.5L1482.1,341.5L1482.1,347.9L1466.1,347.9Z" style="fill:white;fill-rule:nonzero;"/>
                <path d="M1515.3,373.7L1514.9,374.3L1507.1,374.3L1500.5,362L1495.9,362L1495.9,374.3L1488.1,374.3L1488.1,341.6L1502.2,341.6C1510.4,341.6 1514.8,345.6 1514.8,352C1514.8,356.4 1512.3,359.5 1508.4,361L1515.3,373.7ZM1496,356.6L1502.3,356.6C1505,356.6 1506.9,355 1506.9,352.4C1506.9,349.7 1505,348 1502.3,348L1496,348L1496,356.6Z" style="fill:white;fill-rule:nonzero;"/>
                <path d="M1550.1,341.5L1550.1,374.4L1545.2,374.4L1528.6,354.9L1528.6,374.2L1520.8,374.2L1520.8,341.5L1525.7,341.5L1542.2,361L1542.2,341.5L1550.1,341.5Z" style="fill:white;fill-rule:nonzero;"/>
                <path d="M1555.6,357.9C1555.6,348.2 1563.3,341 1573.6,341C1583.8,341 1591.5,348.2 1591.5,357.9C1591.5,367.6 1583.8,374.8 1573.6,374.8C1563.4,374.9 1555.6,367.6 1555.6,357.9ZM1583.5,357.9C1583.5,352.1 1579.1,348 1573.6,348C1568.1,348 1563.7,352.1 1563.7,357.9C1563.7,363.6 1568.1,367.8 1573.6,367.8C1579.1,367.8 1583.5,363.6 1583.5,357.9Z" style="fill:white;fill-rule:nonzero;"/>
                <path d="M1639.4,357.9C1639.4,367.8 1632.8,374.3 1622.2,374.3L1607.9,374.3L1607.9,341.6L1622.2,341.6C1632.8,341.6 1639.4,348.1 1639.4,357.9ZM1631.4,357.9C1631.4,351.7 1627.6,348 1621.9,348L1615.7,348L1615.7,367.8L1621.9,367.8C1627.6,367.8 1631.4,364.1 1631.4,357.9Z" style="fill:white;fill-rule:nonzero;"/>
                <path d="M1643,357.9C1643,348.2 1650.7,341 1661,341C1671.2,341 1678.9,348.2 1678.9,357.9C1678.9,367.6 1671.2,374.8 1661,374.8C1650.8,374.9 1643,367.6 1643,357.9ZM1670.9,357.9C1670.9,352.1 1666.5,348 1661,348C1655.5,348 1651.1,352.1 1651.1,357.9C1651.1,363.6 1655.5,367.8 1661,367.8C1666.5,367.8 1670.9,363.6 1670.9,357.9Z" style="fill:white;fill-rule:nonzero;"/>
                <path d="M1703.2,347.9L1703.2,354.8L1715.6,354.8L1715.6,360.9L1703.2,360.9L1703.2,367.8L1719.3,367.8L1719.3,374.2L1695.4,374.2L1695.4,341.5L1719.2,341.5L1719.2,347.9L1703.2,347.9Z" style="fill:white;fill-rule:nonzero;"/>
                <path d="M1722.7,369L1722.7,368.4L1726.6,363.9L1727.2,363.9C1729.3,366.3 1733,368.2 1736.3,368.2C1739.6,368.2 1741.5,366.9 1741.5,365C1741.5,362.2 1738.3,361.9 1734.3,360.6C1729.8,359.2 1724.3,356.7 1724.3,350.6C1724.3,344.9 1729.3,340.9 1736.6,340.9C1741.9,340.9 1746.5,343 1748.9,345.8L1748.9,346.4L1745,350.8L1744.4,350.8C1742.8,349.1 1740.1,347.2 1736.7,347.2C1734.1,347.2 1732.3,348.3 1732.3,350.1C1732.3,352.3 1734.8,353.1 1737.4,354C1743,355.8 1749.5,357.5 1749.5,364.8C1749.5,371.2 1743.7,374.7 1736.7,374.7C1730.8,374.9 1725.6,372.6 1722.7,369Z" style="fill:white;fill-rule:nonzero;"/>
                <path d="M1769.6,374.3L1761.7,374.3L1761.7,348L1751.4,348L1751.4,341.6L1779.8,341.6L1779.8,348L1769.5,348L1769.5,374.3L1769.6,374.3Z" style="fill:white;fill-rule:nonzero;"/>
                <path d="M1811.8,373.7L1811.4,374.3L1803.5,374.3L1801.1,368.6L1787.3,368.6L1784.9,374.3L1777.3,374.3L1776.9,373.7L1792,341.6L1796.8,341.6L1811.8,373.7ZM1798.9,363.1L1794.3,352L1789.6,363.1L1798.9,363.1Z" style="fill:white;fill-rule:nonzero;"/>
                <path d="M1847.2,357.9C1847.2,367.8 1840.6,374.3 1830,374.3L1815.7,374.3L1815.7,341.6L1830,341.6C1840.6,341.6 1847.2,348.1 1847.2,357.9ZM1839.2,357.9C1839.2,351.7 1835.4,348 1829.7,348L1823.5,348L1823.5,367.8L1829.7,367.8C1835.4,367.8 1839.2,364.1 1839.2,357.9Z" style="fill:white;fill-rule:nonzero;"/>
                <path d="M1850.8,357.9C1850.8,348.2 1858.5,341 1868.7,341C1878.9,341 1886.6,348.2 1886.6,357.9C1886.6,367.6 1878.9,374.8 1868.7,374.8C1858.6,374.9 1850.8,367.6 1850.8,357.9ZM1878.7,357.9C1878.7,352.1 1874.3,348 1868.8,348C1863.3,348 1858.9,352.1 1858.9,357.9C1858.9,363.6 1863.3,367.8 1868.8,367.8C1874.3,367.8 1878.7,363.6 1878.7,357.9Z" style="fill:white;fill-rule:nonzero;"/>
                <path d="M1934.6,357.9C1934.6,367.8 1928,374.3 1917.4,374.3L1903.1,374.3L1903.1,341.6L1917.4,341.6C1928,341.6 1934.6,348.1 1934.6,357.9ZM1926.6,357.9C1926.6,351.7 1922.8,348 1917.1,348L1910.9,348L1910.9,367.8L1917.1,367.8C1922.8,367.8 1926.6,364.1 1926.6,357.9Z" style="fill:white;fill-rule:nonzero;"/>
                <path d="M1938.3,357.9C1938.3,348.2 1946,341 1956.3,341C1966.5,341 1974.2,348.2 1974.2,357.9C1974.2,367.6 1966.5,374.8 1956.3,374.8C1946,374.9 1938.3,367.6 1938.3,357.9ZM1966.1,357.9C1966.1,352.1 1961.7,348 1956.2,348C1950.7,348 1946.3,352.1 1946.3,357.9C1946.3,363.6 1950.7,367.8 1956.2,367.8C1961.7,367.8 1966.1,363.6 1966.1,357.9Z" style="fill:white;fill-rule:nonzero;"/>
                <path d="M1988.6,357.9C1988.6,348.2 1996.3,341 2006.4,341C2012,341 2017,343.5 2020.1,347.4L2020.1,348L2015.3,352L2014.7,352C2012.8,349.7 2009.8,348.1 2006.4,348.1C2000.9,348.1 1996.6,352.2 1996.6,358C1996.6,363.7 2000.9,367.9 2006.4,367.9C2009.8,367.9 2012.8,366.3 2014.7,364L2015.3,364L2020.1,368L2020.1,368.6C2017,372.4 2012.3,375 2006.3,375C1996.3,374.9 1988.6,367.6 1988.6,357.9Z" style="fill:white;fill-rule:nonzero;"/>
                <path d="M2032.7,347.9L2032.7,354.8L2045.1,354.8L2045.1,360.9L2032.7,360.9L2032.7,367.8L2048.8,367.8L2048.8,374.2L2024.9,374.2L2024.9,341.5L2048.7,341.5L2048.7,347.9L2032.7,347.9Z" style="fill:white;fill-rule:nonzero;"/>
                <path d="M2086,373.7L2085.6,374.3L2077.7,374.3L2075.3,368.6L2061.5,368.6L2059.1,374.3L2051.5,374.3L2051.1,373.7L2066.2,341.6L2071,341.6L2086,373.7ZM2073.1,363.1L2068.5,352L2063.8,363.1L2073.1,363.1Z" style="fill:white;fill-rule:nonzero;"/>
                <path d="M2117.1,373.7L2116.7,374.3L2108.9,374.3L2102.3,362L2097.7,362L2097.7,374.3L2089.9,374.3L2089.9,341.6L2104,341.6C2112.2,341.6 2116.6,345.6 2116.6,352C2116.6,356.4 2114.1,359.5 2110.2,361L2117.1,373.7ZM2097.7,356.6L2104,356.6C2106.7,356.6 2108.6,355 2108.6,352.4C2108.6,349.7 2106.7,348 2104,348L2097.7,348L2097.7,356.6Z" style="fill:white;fill-rule:nonzero;"/>
                <path d="M2153.9,373.7L2153.5,374.3L2145.6,374.3L2143.2,368.6L2129.4,368.6L2127,374.3L2119.4,374.3L2119,373.7L2134.1,341.6L2138.9,341.6L2153.9,373.7ZM2131.1,338.3L2129.2,335.2L2129.2,334.6L2140.2,327.6L2140.8,327.6L2143.7,332.5L2143.7,333.1L2131.6,338.3L2131.1,338.3ZM2141,363.1L2136.4,352L2131.7,363.1L2141,363.1Z" style="fill:white;fill-rule:nonzero;"/>
            </g>
            <rect x="1006.1" y="118.8" width="4.2" height="206.5" style="fill:white;"/>
        </g>
    </g>
    <defs>
        <linearGradient id="_Linear2" x1="0" y1="0" x2="1" y2="0" gradientUnits="userSpaceOnUse" gradientTransform="matrix(149.378,0,0,149.378,1096.98,77.8949)"><stop offset="0" style="stop-color:rgb(221,184,104);stop-opacity:1"/><stop offset="0.51" style="stop-color:rgb(241,222,184);stop-opacity:1"/><stop offset="0.6" style="stop-color:rgb(237,215,169);stop-opacity:1"/><stop offset="1" style="stop-color:rgb(221,184,101);stop-opacity:1"/></linearGradient>
        <linearGradient id="_Linear4" x1="0" y1="0" x2="1" y2="0" gradientUnits="userSpaceOnUse" gradientTransform="matrix(134.294,0,0,134.294,1102.55,88.3498)"><stop offset="0" style="stop-color:rgb(191,154,56);stop-opacity:1"/><stop offset="0.51" style="stop-color:rgb(206,172,94);stop-opacity:1"/><stop offset="1" style="stop-color:rgb(191,153,54);stop-opacity:1"/></linearGradient>
        <linearGradient id="_Linear6" x1="0" y1="0" x2="1" y2="0" gradientUnits="userSpaceOnUse" gradientTransform="matrix(141.348,0,0,141.348,1099.78,108.361)"><stop offset="0" style="stop-color:rgb(224,188,110);stop-opacity:1"/><stop offset="0.51" style="stop-color:rgb(228,199,140);stop-opacity:1"/><stop offset="1" style="stop-color:rgb(224,188,110);stop-opacity:1"/></linearGradient>
        <radialGradient id="_Radial8" cx="0" cy="0" r="1" gradientUnits="userSpaceOnUse" gradientTransform="matrix(125.648,0,0,123.909,1171.24,256.428)"><stop offset="0" style="stop-color:rgb(0,157,92);stop-opacity:1"/><stop offset="0.4" style="stop-color:rgb(0,148,83);stop-opacity:1"/><stop offset="1" style="stop-color:rgb(0,128,61);stop-opacity:1"/></radialGradient>
        <radialGradient id="_Radial10" cx="0" cy="0" r="1" gradientUnits="userSpaceOnUse" gradientTransform="matrix(90.6815,0,0,89.4266,1147.72,229.837)"><stop offset="0" style="stop-color:rgb(231,241,228);stop-opacity:1"/><stop offset="0.15" style="stop-color:rgb(222,238,229);stop-opacity:1"/><stop offset="0.39" style="stop-color:rgb(197,229,231);stop-opacity:1"/><stop offset="0.69" style="stop-color:rgb(157,214,234);stop-opacity:1"/><stop offset="1" style="stop-color:rgb(109,197,238);stop-opacity:1"/></radialGradient>
        <linearGradient id="_Linear12" x1="0" y1="0" x2="1" y2="0" gradientUnits="userSpaceOnUse" gradientTransform="matrix(130.226,0,0,130.226,1098.78,280.93)"><stop offset="0" style="stop-color:white;stop-opacity:1"/><stop offset="0.19" style="stop-color:rgb(255,251,246);stop-opacity:1"/><stop offset="0.51" style="stop-color:rgb(253,239,221);stop-opacity:1"/><stop offset="0.9" style="stop-color:rgb(252,220,181);stop-opacity:1"/><stop offset="1" style="stop-color:rgb(251,215,170);stop-opacity:1"/></linearGradient>
        <linearGradient id="_Linear14" x1="0" y1="0" x2="1" y2="0" gradientUnits="userSpaceOnUse" gradientTransform="matrix(87.6529,0,0,87.6529,1101.09,281.746)"><stop offset="0" style="stop-color:rgb(0,169,179);stop-opacity:1"/><stop offset="0.16" style="stop-color:rgb(9,171,181);stop-opacity:1"/><stop offset="0.44" style="stop-color:rgb(34,176,186);stop-opacity:1"/><stop offset="0.78" style="stop-color:rgb(74,185,194);stop-opacity:1"/><stop offset="1" style="stop-color:rgb(104,192,200);stop-opacity:1"/></linearGradient>
        <linearGradient id="_Linear16" x1="0" y1="0" x2="1" y2="0" gradientUnits="userSpaceOnUse" gradientTransform="matrix(2.49367e-15,40.7247,-40.7247,2.49367e-15,1202.99,198.546)"><stop offset="0" style="stop-color:rgb(14,157,108);stop-opacity:1"/><stop offset="0.34" style="stop-color:rgb(11,149,99);stop-opacity:1"/><stop offset="0.9" style="stop-color:rgb(2,128,74);stop-opacity:1"/><stop offset="1" style="stop-color:rgb(0,123,69);stop-opacity:1"/></linearGradient>
        <linearGradient id="_Linear18" x1="0" y1="0" x2="1" y2="0" gradientUnits="userSpaceOnUse" gradientTransform="matrix(79.3926,0,0,79.3926,1159.22,268.774)"><stop offset="0" style="stop-color:rgb(236,188,143);stop-opacity:1"/><stop offset="0.26" style="stop-color:rgb(232,182,134);stop-opacity:1"/><stop offset="0.7" style="stop-color:rgb(221,164,109);stop-opacity:1"/><stop offset="1" style="stop-color:rgb(212,149,88);stop-opacity:1"/></linearGradient>
        <linearGradient id="_Linear20" x1="0" y1="0" x2="1" y2="0" gradientUnits="userSpaceOnUse" gradientTransform="matrix(1.1173e-15,18.2469,-18.2469,1.1173e-15,1218.81,221.732)"><stop offset="0" style="stop-color:rgb(14,157,108);stop-opacity:1"/><stop offset="0.34" style="stop-color:rgb(11,149,99);stop-opacity:1"/><stop offset="0.9" style="stop-color:rgb(2,128,74);stop-opacity:1"/><stop offset="1" style="stop-color:rgb(0,123,69);stop-opacity:1"/></linearGradient>
        <linearGradient id="_Linear22" x1="0" y1="0" x2="1" y2="0" gradientUnits="userSpaceOnUse" gradientTransform="matrix(19.7342,0,0,19.7342,1131.23,224.421)"><stop offset="0" style="stop-color:rgb(226,224,224);stop-opacity:1"/><stop offset="0.4" style="stop-color:rgb(234,233,233);stop-opacity:1"/><stop offset="1" style="stop-color:rgb(252,253,255);stop-opacity:1"/></linearGradient>
        <linearGradient id="_Linear24" x1="0" y1="0" x2="1" y2="0" gradientUnits="userSpaceOnUse" gradientTransform="matrix(10.0626,0,0,10.0626,1135.97,197.497)"><stop offset="0" style="stop-color:rgb(226,224,224);stop-opacity:1"/><stop offset="0.4" style="stop-color:rgb(234,233,233);stop-opacity:1"/><stop offset="1" style="stop-color:rgb(252,253,255);stop-opacity:1"/></linearGradient>
    </defs>
</svg>
